<mxfile host="cc8d6bbf-8c13-43f2-b6e3-bc0477c5b94f" modified="2020-08-18T03:16:57.825Z" agent="5.0 (Windows NT 10.0; Win64; x64) AppleWebKit/537.36 (KHTML, like Gecko) Code/1.47.3 Chrome/78.0.3904.130 Electron/7.3.2 Safari/537.36" etag="gf05LOJ6hMxSoRWL2SEd" version="13.1.3" pages="3">
    <diagram id="6hGFLwfOUW9BJ-s0fimq" name="Page-1">
        <mxGraphModel dx="892" dy="480" grid="0" gridSize="10" guides="1" tooltips="1" connect="1" arrows="1" fold="1" page="1" pageScale="1" pageWidth="827" pageHeight="1169" background="#808080" math="0" shadow="0">
            <root>
                <mxCell id="0"/>
                <mxCell id="1" parent="0"/>
                <mxCell id="14" value="" style="edgeStyle=orthogonalEdgeStyle;rounded=0;orthogonalLoop=1;jettySize=auto;html=1;strokeColor=#FFFF66;endArrow=none;endFill=0;" parent="1" source="2" target="4" edge="1">
                    <mxGeometry relative="1" as="geometry"/>
                </mxCell>
                <mxCell id="2" value="&lt;font style=&quot;font-size: 16px&quot;&gt;a1&lt;/font&gt;" style="ellipse;whiteSpace=wrap;html=1;fillColor=#808080;strokeColor=#FFFF66;strokeWidth=2;" parent="1" vertex="1">
                    <mxGeometry x="153" y="155" width="32" height="30" as="geometry"/>
                </mxCell>
                <mxCell id="15" value="" style="edgeStyle=orthogonalEdgeStyle;rounded=0;orthogonalLoop=1;jettySize=auto;html=1;strokeColor=#FFFF66;endArrow=none;endFill=0;" parent="1" source="3" target="9" edge="1">
                    <mxGeometry relative="1" as="geometry"/>
                </mxCell>
                <mxCell id="3" value="&lt;font style=&quot;font-size: 16px&quot;&gt;a2&lt;/font&gt;" style="ellipse;whiteSpace=wrap;html=1;fillColor=#808080;strokeColor=#FFFF66;strokeWidth=2;" parent="1" vertex="1">
                    <mxGeometry x="208" y="155" width="32" height="30" as="geometry"/>
                </mxCell>
                <mxCell id="4" value="&lt;font style=&quot;font-size: 16px&quot;&gt;a3&lt;/font&gt;" style="ellipse;whiteSpace=wrap;html=1;fillColor=#d80073;strokeColor=#A50040;strokeWidth=2;fontColor=#ffffff;" parent="1" vertex="1">
                    <mxGeometry x="259" y="155" width="32" height="30" as="geometry"/>
                </mxCell>
                <mxCell id="17" value="" style="edgeStyle=orthogonalEdgeStyle;rounded=0;orthogonalLoop=1;jettySize=auto;html=1;strokeColor=#FFFF66;endArrow=none;endFill=0;" parent="1" source="11" target="16" edge="1">
                    <mxGeometry relative="1" as="geometry"/>
                </mxCell>
                <mxCell id="9" value="&lt;font style=&quot;font-size: 16px&quot;&gt;a4&lt;/font&gt;" style="ellipse;whiteSpace=wrap;html=1;fillColor=#808080;strokeColor=#FFFF66;strokeWidth=2;" parent="1" vertex="1">
                    <mxGeometry x="320" y="155" width="32" height="30" as="geometry"/>
                </mxCell>
                <mxCell id="16" value="&lt;font style=&quot;font-size: 16px&quot;&gt;a6&lt;/font&gt;" style="ellipse;whiteSpace=wrap;html=1;fillColor=#808080;strokeColor=#FFFF66;strokeWidth=2;" parent="1" vertex="1">
                    <mxGeometry x="432" y="155" width="32" height="30" as="geometry"/>
                </mxCell>
                <mxCell id="11" value="&lt;font style=&quot;font-size: 16px&quot;&gt;a5&lt;/font&gt;" style="ellipse;whiteSpace=wrap;html=1;fillColor=#808080;strokeColor=#FFFF66;strokeWidth=2;" parent="1" vertex="1">
                    <mxGeometry x="376" y="155" width="32" height="30" as="geometry"/>
                </mxCell>
                <mxCell id="18" value="" style="edgeStyle=orthogonalEdgeStyle;rounded=0;orthogonalLoop=1;jettySize=auto;html=1;strokeColor=#FFFF66;endArrow=none;endFill=0;" parent="1" source="9" target="11" edge="1">
                    <mxGeometry relative="1" as="geometry">
                        <mxPoint x="352" y="170" as="sourcePoint"/>
                        <mxPoint x="432" y="170" as="targetPoint"/>
                    </mxGeometry>
                </mxCell>
                <mxCell id="24" value="a3 的直接前驱元素" style="text;html=1;strokeColor=none;fillColor=none;align=center;verticalAlign=middle;whiteSpace=wrap;rounded=0;" parent="1" vertex="1">
                    <mxGeometry x="168" y="112" width="107.5" height="20" as="geometry"/>
                </mxCell>
                <mxCell id="25" value="a3 的直接后继元素" style="text;html=1;strokeColor=none;fillColor=none;align=center;verticalAlign=middle;whiteSpace=wrap;rounded=0;" parent="1" vertex="1">
                    <mxGeometry x="286" y="112" width="110" height="20" as="geometry"/>
                </mxCell>
                <mxCell id="26" value="" style="endArrow=none;html=1;strokeColor=#FFFF66;" parent="1" edge="1">
                    <mxGeometry width="50" height="50" relative="1" as="geometry">
                        <mxPoint x="224" y="154" as="sourcePoint"/>
                        <mxPoint x="223.66" y="132" as="targetPoint"/>
                    </mxGeometry>
                </mxCell>
                <mxCell id="27" value="" style="endArrow=none;html=1;strokeColor=#FFFF66;" parent="1" edge="1">
                    <mxGeometry width="50" height="50" relative="1" as="geometry">
                        <mxPoint x="336.14" y="154" as="sourcePoint"/>
                        <mxPoint x="335.79999999999995" y="132" as="targetPoint"/>
                    </mxGeometry>
                </mxCell>
                <mxCell id="28" value="" style="strokeWidth=2;html=1;shape=mxgraph.flowchart.annotation_2;align=left;labelPosition=right;pointerEvents=1;fillColor=#808080;direction=east;rotation=-90;" parent="1" vertex="1">
                    <mxGeometry x="171" y="165" width="50" height="100" as="geometry"/>
                </mxCell>
                <mxCell id="29" value="" style="strokeWidth=2;html=1;shape=mxgraph.flowchart.annotation_2;align=left;labelPosition=right;pointerEvents=1;fillColor=#808080;direction=east;rotation=-90;" parent="1" vertex="1">
                    <mxGeometry x="367" y="132" width="50" height="162" as="geometry"/>
                </mxCell>
                <mxCell id="30" value="a3 的前驱元素" style="text;html=1;strokeColor=none;fillColor=none;align=center;verticalAlign=middle;whiteSpace=wrap;rounded=0;" parent="1" vertex="1">
                    <mxGeometry x="146" y="245" width="107.5" height="20" as="geometry"/>
                </mxCell>
                <mxCell id="32" value="a3 的后继元素" style="text;html=1;strokeColor=none;fillColor=none;align=center;verticalAlign=middle;whiteSpace=wrap;rounded=0;" parent="1" vertex="1">
                    <mxGeometry x="334" y="245" width="110" height="20" as="geometry"/>
                </mxCell>
            </root>
        </mxGraphModel>
    </diagram>
    <diagram name="一些模板" id="uEpUuUU1rTNOmull9yLI">
        <mxGraphModel dx="892" dy="480" grid="0" gridSize="10" guides="1" tooltips="1" connect="1" arrows="1" fold="1" page="1" pageScale="1" pageWidth="827" pageHeight="1169" background="#808080" math="0" shadow="0">
            <root>
                <mxCell id="ApwiqstQt8Peh4eSJjnf-0"/>
                <mxCell id="ApwiqstQt8Peh4eSJjnf-1" parent="ApwiqstQt8Peh4eSJjnf-0"/>
                <mxCell id="ApwiqstQt8Peh4eSJjnf-360" value="" style="align=left;strokeColor=#CCCCCC;html=1;" parent="ApwiqstQt8Peh4eSJjnf-1" vertex="1">
                    <mxGeometry x="20" y="154" width="120" height="20" as="geometry"/>
                </mxCell>
                <mxCell id="ApwiqstQt8Peh4eSJjnf-363" value="" style="align=left;strokeColor=#CCCCCC;html=1;" parent="ApwiqstQt8Peh4eSJjnf-1" vertex="1">
                    <mxGeometry x="20" y="174" width="120" height="20" as="geometry"/>
                </mxCell>
                <mxCell id="ApwiqstQt8Peh4eSJjnf-364" value="" style="align=left;strokeColor=#CCCCCC;html=1;" parent="ApwiqstQt8Peh4eSJjnf-1" vertex="1">
                    <mxGeometry x="20" y="194" width="120" height="20" as="geometry"/>
                </mxCell>
                <mxCell id="ApwiqstQt8Peh4eSJjnf-365" value="" style="align=left;strokeColor=#CCCCCC;html=1;" parent="ApwiqstQt8Peh4eSJjnf-1" vertex="1">
                    <mxGeometry x="20" y="214" width="120" height="20" as="geometry"/>
                </mxCell>
                <mxCell id="ApwiqstQt8Peh4eSJjnf-366" value="" style="align=left;strokeColor=#CCCCCC;html=1;" parent="ApwiqstQt8Peh4eSJjnf-1" vertex="1">
                    <mxGeometry x="20" y="234" width="120" height="20" as="geometry"/>
                </mxCell>
                <mxCell id="ApwiqstQt8Peh4eSJjnf-367" value="" style="align=left;strokeColor=#CCCCCC;html=1;" parent="ApwiqstQt8Peh4eSJjnf-1" vertex="1">
                    <mxGeometry x="20" y="254" width="120" height="20" as="geometry"/>
                </mxCell>
                <mxCell id="ApwiqstQt8Peh4eSJjnf-368" value="" style="align=left;strokeColor=#CCCCCC;html=1;" parent="ApwiqstQt8Peh4eSJjnf-1" vertex="1">
                    <mxGeometry x="20" y="274" width="120" height="20" as="geometry"/>
                </mxCell>
                <mxCell id="ApwiqstQt8Peh4eSJjnf-369" value="" style="align=left;strokeColor=#CCCCCC;html=1;" parent="ApwiqstQt8Peh4eSJjnf-1" vertex="1">
                    <mxGeometry x="20" y="294" width="120" height="20" as="geometry"/>
                </mxCell>
                <mxCell id="ApwiqstQt8Peh4eSJjnf-370" value="" style="align=left;strokeColor=#CCCCCC;html=1;" parent="ApwiqstQt8Peh4eSJjnf-1" vertex="1">
                    <mxGeometry x="20" y="314" width="120" height="20" as="geometry"/>
                </mxCell>
                <mxCell id="ApwiqstQt8Peh4eSJjnf-371" value="" style="align=left;strokeColor=#CCCCCC;html=1;" parent="ApwiqstQt8Peh4eSJjnf-1" vertex="1">
                    <mxGeometry x="20" y="334" width="120" height="20" as="geometry"/>
                </mxCell>
                <mxCell id="ApwiqstQt8Peh4eSJjnf-372" value="" style="align=left;strokeColor=#CCCCCC;html=1;" parent="ApwiqstQt8Peh4eSJjnf-1" vertex="1">
                    <mxGeometry x="20" y="354" width="120" height="20" as="geometry"/>
                </mxCell>
                <mxCell id="ApwiqstQt8Peh4eSJjnf-373" value="" style="align=left;strokeColor=#CCCCCC;html=1;" parent="ApwiqstQt8Peh4eSJjnf-1" vertex="1">
                    <mxGeometry x="20" y="374" width="120" height="20" as="geometry"/>
                </mxCell>
                <mxCell id="ApwiqstQt8Peh4eSJjnf-374" value="" style="align=left;strokeColor=#CCCCCC;html=1;" parent="ApwiqstQt8Peh4eSJjnf-1" vertex="1">
                    <mxGeometry x="20" y="394" width="120" height="20" as="geometry"/>
                </mxCell>
                <mxCell id="ApwiqstQt8Peh4eSJjnf-375" value="" style="align=left;strokeColor=#CCCCCC;html=1;" parent="ApwiqstQt8Peh4eSJjnf-1" vertex="1">
                    <mxGeometry x="20" y="414" width="120" height="20" as="geometry"/>
                </mxCell>
                <mxCell id="ApwiqstQt8Peh4eSJjnf-376" value="" style="align=left;strokeColor=#CCCCCC;html=1;" parent="ApwiqstQt8Peh4eSJjnf-1" vertex="1">
                    <mxGeometry x="20" y="434" width="120" height="20" as="geometry"/>
                </mxCell>
                <mxCell id="ApwiqstQt8Peh4eSJjnf-377" value="" style="align=left;strokeColor=#CCCCCC;html=1;" parent="ApwiqstQt8Peh4eSJjnf-1" vertex="1">
                    <mxGeometry x="20" y="454" width="120" height="20" as="geometry"/>
                </mxCell>
                <mxCell id="ApwiqstQt8Peh4eSJjnf-378" value="" style="align=left;strokeColor=#CCCCCC;html=1;" parent="ApwiqstQt8Peh4eSJjnf-1" vertex="1">
                    <mxGeometry x="140" y="154" width="120" height="20" as="geometry"/>
                </mxCell>
                <mxCell id="ApwiqstQt8Peh4eSJjnf-379" value="" style="align=left;strokeColor=#CCCCCC;html=1;" parent="ApwiqstQt8Peh4eSJjnf-1" vertex="1">
                    <mxGeometry x="140" y="174" width="120" height="20" as="geometry"/>
                </mxCell>
                <mxCell id="ApwiqstQt8Peh4eSJjnf-380" value="" style="align=left;strokeColor=#CCCCCC;html=1;" parent="ApwiqstQt8Peh4eSJjnf-1" vertex="1">
                    <mxGeometry x="140" y="194" width="120" height="20" as="geometry"/>
                </mxCell>
                <mxCell id="ApwiqstQt8Peh4eSJjnf-381" value="" style="align=left;strokeColor=#CCCCCC;html=1;" parent="ApwiqstQt8Peh4eSJjnf-1" vertex="1">
                    <mxGeometry x="140" y="214" width="120" height="20" as="geometry"/>
                </mxCell>
                <mxCell id="ApwiqstQt8Peh4eSJjnf-382" value="" style="align=left;strokeColor=#CCCCCC;html=1;" parent="ApwiqstQt8Peh4eSJjnf-1" vertex="1">
                    <mxGeometry x="140" y="234" width="120" height="20" as="geometry"/>
                </mxCell>
                <mxCell id="ApwiqstQt8Peh4eSJjnf-383" value="" style="align=left;strokeColor=#CCCCCC;html=1;" parent="ApwiqstQt8Peh4eSJjnf-1" vertex="1">
                    <mxGeometry x="140" y="254" width="120" height="20" as="geometry"/>
                </mxCell>
                <mxCell id="ApwiqstQt8Peh4eSJjnf-384" value="" style="align=left;strokeColor=#CCCCCC;html=1;" parent="ApwiqstQt8Peh4eSJjnf-1" vertex="1">
                    <mxGeometry x="140" y="274" width="120" height="20" as="geometry"/>
                </mxCell>
                <mxCell id="ApwiqstQt8Peh4eSJjnf-385" value="" style="align=left;strokeColor=#CCCCCC;html=1;" parent="ApwiqstQt8Peh4eSJjnf-1" vertex="1">
                    <mxGeometry x="140" y="294" width="120" height="20" as="geometry"/>
                </mxCell>
                <mxCell id="ApwiqstQt8Peh4eSJjnf-386" value="" style="align=left;strokeColor=#CCCCCC;html=1;" parent="ApwiqstQt8Peh4eSJjnf-1" vertex="1">
                    <mxGeometry x="140" y="314" width="120" height="20" as="geometry"/>
                </mxCell>
                <mxCell id="ApwiqstQt8Peh4eSJjnf-387" value="" style="align=left;strokeColor=#CCCCCC;html=1;" parent="ApwiqstQt8Peh4eSJjnf-1" vertex="1">
                    <mxGeometry x="140" y="334" width="120" height="20" as="geometry"/>
                </mxCell>
                <mxCell id="ApwiqstQt8Peh4eSJjnf-388" value="" style="align=left;strokeColor=#CCCCCC;html=1;" parent="ApwiqstQt8Peh4eSJjnf-1" vertex="1">
                    <mxGeometry x="140" y="354" width="120" height="20" as="geometry"/>
                </mxCell>
                <mxCell id="ApwiqstQt8Peh4eSJjnf-389" value="" style="align=left;strokeColor=#CCCCCC;html=1;" parent="ApwiqstQt8Peh4eSJjnf-1" vertex="1">
                    <mxGeometry x="140" y="374" width="120" height="20" as="geometry"/>
                </mxCell>
                <mxCell id="ApwiqstQt8Peh4eSJjnf-390" value="" style="align=left;strokeColor=#CCCCCC;html=1;" parent="ApwiqstQt8Peh4eSJjnf-1" vertex="1">
                    <mxGeometry x="140" y="394" width="120" height="20" as="geometry"/>
                </mxCell>
                <mxCell id="ApwiqstQt8Peh4eSJjnf-391" value="" style="align=left;strokeColor=#CCCCCC;html=1;" parent="ApwiqstQt8Peh4eSJjnf-1" vertex="1">
                    <mxGeometry x="140" y="414" width="120" height="20" as="geometry"/>
                </mxCell>
                <mxCell id="ApwiqstQt8Peh4eSJjnf-392" value="" style="align=left;strokeColor=#CCCCCC;html=1;" parent="ApwiqstQt8Peh4eSJjnf-1" vertex="1">
                    <mxGeometry x="140" y="434" width="120" height="20" as="geometry"/>
                </mxCell>
                <mxCell id="ApwiqstQt8Peh4eSJjnf-393" value="" style="align=left;strokeColor=#CCCCCC;html=1;" parent="ApwiqstQt8Peh4eSJjnf-1" vertex="1">
                    <mxGeometry x="140" y="454" width="120" height="20" as="geometry"/>
                </mxCell>
                <mxCell id="ApwiqstQt8Peh4eSJjnf-394" value="" style="align=left;strokeColor=#CCCCCC;html=1;" parent="ApwiqstQt8Peh4eSJjnf-1" vertex="1">
                    <mxGeometry x="260" y="154" width="120" height="20" as="geometry"/>
                </mxCell>
                <mxCell id="ApwiqstQt8Peh4eSJjnf-395" value="" style="align=left;strokeColor=#CCCCCC;html=1;" parent="ApwiqstQt8Peh4eSJjnf-1" vertex="1">
                    <mxGeometry x="260" y="174" width="120" height="20" as="geometry"/>
                </mxCell>
                <mxCell id="ApwiqstQt8Peh4eSJjnf-396" value="" style="align=left;strokeColor=#CCCCCC;html=1;" parent="ApwiqstQt8Peh4eSJjnf-1" vertex="1">
                    <mxGeometry x="260" y="194" width="120" height="20" as="geometry"/>
                </mxCell>
                <mxCell id="ApwiqstQt8Peh4eSJjnf-397" value="" style="align=left;strokeColor=#CCCCCC;html=1;" parent="ApwiqstQt8Peh4eSJjnf-1" vertex="1">
                    <mxGeometry x="260" y="214" width="120" height="20" as="geometry"/>
                </mxCell>
                <mxCell id="ApwiqstQt8Peh4eSJjnf-398" value="" style="align=left;strokeColor=#CCCCCC;html=1;" parent="ApwiqstQt8Peh4eSJjnf-1" vertex="1">
                    <mxGeometry x="260" y="234" width="120" height="20" as="geometry"/>
                </mxCell>
                <mxCell id="ApwiqstQt8Peh4eSJjnf-399" value="" style="align=left;strokeColor=#CCCCCC;html=1;" parent="ApwiqstQt8Peh4eSJjnf-1" vertex="1">
                    <mxGeometry x="260" y="254" width="120" height="20" as="geometry"/>
                </mxCell>
                <mxCell id="ApwiqstQt8Peh4eSJjnf-400" value="" style="align=left;strokeColor=#CCCCCC;html=1;" parent="ApwiqstQt8Peh4eSJjnf-1" vertex="1">
                    <mxGeometry x="260" y="274" width="120" height="20" as="geometry"/>
                </mxCell>
                <mxCell id="ApwiqstQt8Peh4eSJjnf-401" value="" style="align=left;strokeColor=#CCCCCC;html=1;" parent="ApwiqstQt8Peh4eSJjnf-1" vertex="1">
                    <mxGeometry x="260" y="294" width="120" height="20" as="geometry"/>
                </mxCell>
                <mxCell id="ApwiqstQt8Peh4eSJjnf-402" value="" style="align=left;strokeColor=#CCCCCC;html=1;" parent="ApwiqstQt8Peh4eSJjnf-1" vertex="1">
                    <mxGeometry x="260" y="314" width="120" height="20" as="geometry"/>
                </mxCell>
                <mxCell id="ApwiqstQt8Peh4eSJjnf-403" value="" style="align=left;strokeColor=#CCCCCC;html=1;" parent="ApwiqstQt8Peh4eSJjnf-1" vertex="1">
                    <mxGeometry x="260" y="334" width="120" height="20" as="geometry"/>
                </mxCell>
                <mxCell id="ApwiqstQt8Peh4eSJjnf-404" value="" style="align=left;strokeColor=#CCCCCC;html=1;" parent="ApwiqstQt8Peh4eSJjnf-1" vertex="1">
                    <mxGeometry x="260" y="354" width="120" height="20" as="geometry"/>
                </mxCell>
                <mxCell id="ApwiqstQt8Peh4eSJjnf-405" value="" style="align=left;strokeColor=#CCCCCC;html=1;" parent="ApwiqstQt8Peh4eSJjnf-1" vertex="1">
                    <mxGeometry x="260" y="374" width="120" height="20" as="geometry"/>
                </mxCell>
                <mxCell id="ApwiqstQt8Peh4eSJjnf-406" value="" style="align=left;strokeColor=#CCCCCC;html=1;" parent="ApwiqstQt8Peh4eSJjnf-1" vertex="1">
                    <mxGeometry x="260" y="394" width="120" height="20" as="geometry"/>
                </mxCell>
                <mxCell id="ApwiqstQt8Peh4eSJjnf-407" value="" style="align=left;strokeColor=#CCCCCC;html=1;" parent="ApwiqstQt8Peh4eSJjnf-1" vertex="1">
                    <mxGeometry x="260" y="414" width="120" height="20" as="geometry"/>
                </mxCell>
                <mxCell id="ApwiqstQt8Peh4eSJjnf-408" value="" style="align=left;strokeColor=#CCCCCC;html=1;" parent="ApwiqstQt8Peh4eSJjnf-1" vertex="1">
                    <mxGeometry x="260" y="434" width="120" height="20" as="geometry"/>
                </mxCell>
                <mxCell id="ApwiqstQt8Peh4eSJjnf-409" value="" style="align=left;strokeColor=#CCCCCC;html=1;" parent="ApwiqstQt8Peh4eSJjnf-1" vertex="1">
                    <mxGeometry x="260" y="454" width="120" height="20" as="geometry"/>
                </mxCell>
                <mxCell id="ApwiqstQt8Peh4eSJjnf-410" value="" style="align=left;strokeColor=#CCCCCC;html=1;" parent="ApwiqstQt8Peh4eSJjnf-1" vertex="1">
                    <mxGeometry x="380" y="154" width="120" height="20" as="geometry"/>
                </mxCell>
                <mxCell id="ApwiqstQt8Peh4eSJjnf-411" value="" style="align=left;strokeColor=#CCCCCC;html=1;" parent="ApwiqstQt8Peh4eSJjnf-1" vertex="1">
                    <mxGeometry x="380" y="174" width="120" height="20" as="geometry"/>
                </mxCell>
                <mxCell id="ApwiqstQt8Peh4eSJjnf-412" value="" style="align=left;strokeColor=#CCCCCC;html=1;" parent="ApwiqstQt8Peh4eSJjnf-1" vertex="1">
                    <mxGeometry x="380" y="194" width="120" height="20" as="geometry"/>
                </mxCell>
                <mxCell id="ApwiqstQt8Peh4eSJjnf-413" value="" style="align=left;strokeColor=#CCCCCC;html=1;" parent="ApwiqstQt8Peh4eSJjnf-1" vertex="1">
                    <mxGeometry x="380" y="214" width="120" height="20" as="geometry"/>
                </mxCell>
                <mxCell id="ApwiqstQt8Peh4eSJjnf-414" value="" style="align=left;strokeColor=#CCCCCC;html=1;" parent="ApwiqstQt8Peh4eSJjnf-1" vertex="1">
                    <mxGeometry x="380" y="234" width="120" height="20" as="geometry"/>
                </mxCell>
                <mxCell id="ApwiqstQt8Peh4eSJjnf-415" value="" style="align=left;strokeColor=#CCCCCC;html=1;" parent="ApwiqstQt8Peh4eSJjnf-1" vertex="1">
                    <mxGeometry x="380" y="254" width="120" height="20" as="geometry"/>
                </mxCell>
                <mxCell id="ApwiqstQt8Peh4eSJjnf-416" value="" style="align=left;strokeColor=#CCCCCC;html=1;" parent="ApwiqstQt8Peh4eSJjnf-1" vertex="1">
                    <mxGeometry x="380" y="274" width="120" height="20" as="geometry"/>
                </mxCell>
                <mxCell id="ApwiqstQt8Peh4eSJjnf-417" value="" style="align=left;strokeColor=#CCCCCC;html=1;" parent="ApwiqstQt8Peh4eSJjnf-1" vertex="1">
                    <mxGeometry x="380" y="294" width="120" height="20" as="geometry"/>
                </mxCell>
                <mxCell id="ApwiqstQt8Peh4eSJjnf-418" value="" style="align=left;strokeColor=#CCCCCC;html=1;" parent="ApwiqstQt8Peh4eSJjnf-1" vertex="1">
                    <mxGeometry x="380" y="314" width="120" height="20" as="geometry"/>
                </mxCell>
                <mxCell id="ApwiqstQt8Peh4eSJjnf-419" value="" style="align=left;strokeColor=#CCCCCC;html=1;" parent="ApwiqstQt8Peh4eSJjnf-1" vertex="1">
                    <mxGeometry x="380" y="334" width="120" height="20" as="geometry"/>
                </mxCell>
                <mxCell id="ApwiqstQt8Peh4eSJjnf-420" value="" style="align=left;strokeColor=#CCCCCC;html=1;" parent="ApwiqstQt8Peh4eSJjnf-1" vertex="1">
                    <mxGeometry x="380" y="354" width="120" height="20" as="geometry"/>
                </mxCell>
                <mxCell id="ApwiqstQt8Peh4eSJjnf-421" value="" style="align=left;strokeColor=#CCCCCC;html=1;" parent="ApwiqstQt8Peh4eSJjnf-1" vertex="1">
                    <mxGeometry x="380" y="374" width="120" height="20" as="geometry"/>
                </mxCell>
                <mxCell id="ApwiqstQt8Peh4eSJjnf-422" value="" style="align=left;strokeColor=#CCCCCC;html=1;" parent="ApwiqstQt8Peh4eSJjnf-1" vertex="1">
                    <mxGeometry x="380" y="394" width="120" height="20" as="geometry"/>
                </mxCell>
                <mxCell id="ApwiqstQt8Peh4eSJjnf-423" value="" style="align=left;strokeColor=#CCCCCC;html=1;" parent="ApwiqstQt8Peh4eSJjnf-1" vertex="1">
                    <mxGeometry x="380" y="414" width="120" height="20" as="geometry"/>
                </mxCell>
                <mxCell id="ApwiqstQt8Peh4eSJjnf-424" value="" style="align=left;strokeColor=#CCCCCC;html=1;" parent="ApwiqstQt8Peh4eSJjnf-1" vertex="1">
                    <mxGeometry x="380" y="434" width="120" height="20" as="geometry"/>
                </mxCell>
                <mxCell id="ApwiqstQt8Peh4eSJjnf-425" value="" style="align=left;strokeColor=#CCCCCC;html=1;" parent="ApwiqstQt8Peh4eSJjnf-1" vertex="1">
                    <mxGeometry x="380" y="454" width="120" height="20" as="geometry"/>
                </mxCell>
                <mxCell id="ApwiqstQt8Peh4eSJjnf-426" value="" style="align=left;strokeColor=#CCCCCC;html=1;" parent="ApwiqstQt8Peh4eSJjnf-1" vertex="1">
                    <mxGeometry x="500" y="154" width="120" height="20" as="geometry"/>
                </mxCell>
                <mxCell id="ApwiqstQt8Peh4eSJjnf-427" value="" style="align=left;strokeColor=#CCCCCC;html=1;" parent="ApwiqstQt8Peh4eSJjnf-1" vertex="1">
                    <mxGeometry x="500" y="174" width="120" height="20" as="geometry"/>
                </mxCell>
                <mxCell id="ApwiqstQt8Peh4eSJjnf-428" value="" style="align=left;strokeColor=#CCCCCC;html=1;" parent="ApwiqstQt8Peh4eSJjnf-1" vertex="1">
                    <mxGeometry x="500" y="194" width="120" height="20" as="geometry"/>
                </mxCell>
                <mxCell id="ApwiqstQt8Peh4eSJjnf-429" value="" style="align=left;strokeColor=#CCCCCC;html=1;" parent="ApwiqstQt8Peh4eSJjnf-1" vertex="1">
                    <mxGeometry x="500" y="214" width="120" height="20" as="geometry"/>
                </mxCell>
                <mxCell id="ApwiqstQt8Peh4eSJjnf-430" value="" style="align=left;strokeColor=#CCCCCC;html=1;" parent="ApwiqstQt8Peh4eSJjnf-1" vertex="1">
                    <mxGeometry x="500" y="234" width="120" height="20" as="geometry"/>
                </mxCell>
                <mxCell id="ApwiqstQt8Peh4eSJjnf-431" value="" style="align=left;strokeColor=#CCCCCC;html=1;" parent="ApwiqstQt8Peh4eSJjnf-1" vertex="1">
                    <mxGeometry x="500" y="254" width="120" height="20" as="geometry"/>
                </mxCell>
                <mxCell id="ApwiqstQt8Peh4eSJjnf-432" value="" style="align=left;strokeColor=#CCCCCC;html=1;" parent="ApwiqstQt8Peh4eSJjnf-1" vertex="1">
                    <mxGeometry x="500" y="274" width="120" height="20" as="geometry"/>
                </mxCell>
                <mxCell id="ApwiqstQt8Peh4eSJjnf-433" value="" style="align=left;strokeColor=#CCCCCC;html=1;" parent="ApwiqstQt8Peh4eSJjnf-1" vertex="1">
                    <mxGeometry x="500" y="294" width="120" height="20" as="geometry"/>
                </mxCell>
                <mxCell id="ApwiqstQt8Peh4eSJjnf-434" value="" style="align=left;strokeColor=#CCCCCC;html=1;" parent="ApwiqstQt8Peh4eSJjnf-1" vertex="1">
                    <mxGeometry x="500" y="314" width="120" height="20" as="geometry"/>
                </mxCell>
                <mxCell id="ApwiqstQt8Peh4eSJjnf-435" value="" style="align=left;strokeColor=#CCCCCC;html=1;" parent="ApwiqstQt8Peh4eSJjnf-1" vertex="1">
                    <mxGeometry x="500" y="334" width="120" height="20" as="geometry"/>
                </mxCell>
                <mxCell id="ApwiqstQt8Peh4eSJjnf-436" value="" style="align=left;strokeColor=#CCCCCC;html=1;" parent="ApwiqstQt8Peh4eSJjnf-1" vertex="1">
                    <mxGeometry x="500" y="354" width="120" height="20" as="geometry"/>
                </mxCell>
                <mxCell id="ApwiqstQt8Peh4eSJjnf-437" value="" style="align=left;strokeColor=#CCCCCC;html=1;" parent="ApwiqstQt8Peh4eSJjnf-1" vertex="1">
                    <mxGeometry x="500" y="374" width="120" height="20" as="geometry"/>
                </mxCell>
                <mxCell id="ApwiqstQt8Peh4eSJjnf-438" value="" style="align=left;strokeColor=#CCCCCC;html=1;" parent="ApwiqstQt8Peh4eSJjnf-1" vertex="1">
                    <mxGeometry x="500" y="394" width="120" height="20" as="geometry"/>
                </mxCell>
                <mxCell id="ApwiqstQt8Peh4eSJjnf-439" value="" style="align=left;strokeColor=#CCCCCC;html=1;" parent="ApwiqstQt8Peh4eSJjnf-1" vertex="1">
                    <mxGeometry x="500" y="414" width="120" height="20" as="geometry"/>
                </mxCell>
                <mxCell id="ApwiqstQt8Peh4eSJjnf-440" value="" style="align=left;strokeColor=#CCCCCC;html=1;" parent="ApwiqstQt8Peh4eSJjnf-1" vertex="1">
                    <mxGeometry x="500" y="434" width="120" height="20" as="geometry"/>
                </mxCell>
                <mxCell id="ApwiqstQt8Peh4eSJjnf-441" value="" style="align=left;strokeColor=#CCCCCC;html=1;" parent="ApwiqstQt8Peh4eSJjnf-1" vertex="1">
                    <mxGeometry x="500" y="454" width="120" height="20" as="geometry"/>
                </mxCell>
                <mxCell id="ApwiqstQt8Peh4eSJjnf-442" value="" style="align=left;strokeColor=#CCCCCC;html=1;" parent="ApwiqstQt8Peh4eSJjnf-1" vertex="1">
                    <mxGeometry x="620" y="154" width="120" height="20" as="geometry"/>
                </mxCell>
                <mxCell id="ApwiqstQt8Peh4eSJjnf-443" value="" style="align=left;strokeColor=#CCCCCC;html=1;" parent="ApwiqstQt8Peh4eSJjnf-1" vertex="1">
                    <mxGeometry x="620" y="174" width="120" height="20" as="geometry"/>
                </mxCell>
                <mxCell id="ApwiqstQt8Peh4eSJjnf-444" value="" style="align=left;strokeColor=#CCCCCC;html=1;" parent="ApwiqstQt8Peh4eSJjnf-1" vertex="1">
                    <mxGeometry x="620" y="194" width="120" height="20" as="geometry"/>
                </mxCell>
                <mxCell id="ApwiqstQt8Peh4eSJjnf-445" value="" style="align=left;strokeColor=#CCCCCC;html=1;" parent="ApwiqstQt8Peh4eSJjnf-1" vertex="1">
                    <mxGeometry x="620" y="214" width="120" height="20" as="geometry"/>
                </mxCell>
                <mxCell id="ApwiqstQt8Peh4eSJjnf-446" value="" style="align=left;strokeColor=#CCCCCC;html=1;" parent="ApwiqstQt8Peh4eSJjnf-1" vertex="1">
                    <mxGeometry x="620" y="234" width="120" height="20" as="geometry"/>
                </mxCell>
                <mxCell id="ApwiqstQt8Peh4eSJjnf-447" value="" style="align=left;strokeColor=#CCCCCC;html=1;" parent="ApwiqstQt8Peh4eSJjnf-1" vertex="1">
                    <mxGeometry x="620" y="254" width="120" height="20" as="geometry"/>
                </mxCell>
                <mxCell id="ApwiqstQt8Peh4eSJjnf-448" value="" style="align=left;strokeColor=#CCCCCC;html=1;" parent="ApwiqstQt8Peh4eSJjnf-1" vertex="1">
                    <mxGeometry x="620" y="274" width="120" height="20" as="geometry"/>
                </mxCell>
                <mxCell id="ApwiqstQt8Peh4eSJjnf-449" value="" style="align=left;strokeColor=#CCCCCC;html=1;" parent="ApwiqstQt8Peh4eSJjnf-1" vertex="1">
                    <mxGeometry x="620" y="294" width="120" height="20" as="geometry"/>
                </mxCell>
                <mxCell id="ApwiqstQt8Peh4eSJjnf-450" value="" style="align=left;strokeColor=#CCCCCC;html=1;" parent="ApwiqstQt8Peh4eSJjnf-1" vertex="1">
                    <mxGeometry x="620" y="314" width="120" height="20" as="geometry"/>
                </mxCell>
                <mxCell id="ApwiqstQt8Peh4eSJjnf-451" value="" style="align=left;strokeColor=#CCCCCC;html=1;" parent="ApwiqstQt8Peh4eSJjnf-1" vertex="1">
                    <mxGeometry x="620" y="334" width="120" height="20" as="geometry"/>
                </mxCell>
                <mxCell id="ApwiqstQt8Peh4eSJjnf-452" value="" style="align=left;strokeColor=#CCCCCC;html=1;" parent="ApwiqstQt8Peh4eSJjnf-1" vertex="1">
                    <mxGeometry x="620" y="354" width="120" height="20" as="geometry"/>
                </mxCell>
                <mxCell id="ApwiqstQt8Peh4eSJjnf-453" value="" style="align=left;strokeColor=#CCCCCC;html=1;" parent="ApwiqstQt8Peh4eSJjnf-1" vertex="1">
                    <mxGeometry x="620" y="374" width="120" height="20" as="geometry"/>
                </mxCell>
                <mxCell id="ApwiqstQt8Peh4eSJjnf-454" value="" style="align=left;strokeColor=#CCCCCC;html=1;" parent="ApwiqstQt8Peh4eSJjnf-1" vertex="1">
                    <mxGeometry x="620" y="394" width="120" height="20" as="geometry"/>
                </mxCell>
                <mxCell id="ApwiqstQt8Peh4eSJjnf-455" value="" style="align=left;strokeColor=#CCCCCC;html=1;" parent="ApwiqstQt8Peh4eSJjnf-1" vertex="1">
                    <mxGeometry x="620" y="414" width="120" height="20" as="geometry"/>
                </mxCell>
                <mxCell id="ApwiqstQt8Peh4eSJjnf-456" value="" style="align=left;strokeColor=#CCCCCC;html=1;" parent="ApwiqstQt8Peh4eSJjnf-1" vertex="1">
                    <mxGeometry x="620" y="434" width="120" height="20" as="geometry"/>
                </mxCell>
                <mxCell id="ApwiqstQt8Peh4eSJjnf-457" value="" style="align=left;strokeColor=#CCCCCC;html=1;" parent="ApwiqstQt8Peh4eSJjnf-1" vertex="1">
                    <mxGeometry x="620" y="454" width="120" height="20" as="geometry"/>
                </mxCell>
                <mxCell id="ApwiqstQt8Peh4eSJjnf-458" value="" style="align=left;strokeColor=#CCCCCC;html=1;" parent="ApwiqstQt8Peh4eSJjnf-1" vertex="1">
                    <mxGeometry x="740" y="154" width="120" height="20" as="geometry"/>
                </mxCell>
                <mxCell id="ApwiqstQt8Peh4eSJjnf-459" value="" style="align=left;strokeColor=#CCCCCC;html=1;" parent="ApwiqstQt8Peh4eSJjnf-1" vertex="1">
                    <mxGeometry x="740" y="174" width="120" height="20" as="geometry"/>
                </mxCell>
                <mxCell id="ApwiqstQt8Peh4eSJjnf-460" value="" style="align=left;strokeColor=#CCCCCC;html=1;" parent="ApwiqstQt8Peh4eSJjnf-1" vertex="1">
                    <mxGeometry x="740" y="194" width="120" height="20" as="geometry"/>
                </mxCell>
                <mxCell id="ApwiqstQt8Peh4eSJjnf-461" value="" style="align=left;strokeColor=#CCCCCC;html=1;" parent="ApwiqstQt8Peh4eSJjnf-1" vertex="1">
                    <mxGeometry x="740" y="214" width="120" height="20" as="geometry"/>
                </mxCell>
                <mxCell id="ApwiqstQt8Peh4eSJjnf-462" value="" style="align=left;strokeColor=#CCCCCC;html=1;" parent="ApwiqstQt8Peh4eSJjnf-1" vertex="1">
                    <mxGeometry x="740" y="234" width="120" height="20" as="geometry"/>
                </mxCell>
                <mxCell id="ApwiqstQt8Peh4eSJjnf-463" value="" style="align=left;strokeColor=#CCCCCC;html=1;" parent="ApwiqstQt8Peh4eSJjnf-1" vertex="1">
                    <mxGeometry x="740" y="254" width="120" height="20" as="geometry"/>
                </mxCell>
                <mxCell id="ApwiqstQt8Peh4eSJjnf-464" value="" style="align=left;strokeColor=#CCCCCC;html=1;" parent="ApwiqstQt8Peh4eSJjnf-1" vertex="1">
                    <mxGeometry x="740" y="274" width="120" height="20" as="geometry"/>
                </mxCell>
                <mxCell id="ApwiqstQt8Peh4eSJjnf-465" value="" style="align=left;strokeColor=#CCCCCC;html=1;" parent="ApwiqstQt8Peh4eSJjnf-1" vertex="1">
                    <mxGeometry x="740" y="294" width="120" height="20" as="geometry"/>
                </mxCell>
                <mxCell id="ApwiqstQt8Peh4eSJjnf-466" value="" style="align=left;strokeColor=#CCCCCC;html=1;" parent="ApwiqstQt8Peh4eSJjnf-1" vertex="1">
                    <mxGeometry x="740" y="314" width="120" height="20" as="geometry"/>
                </mxCell>
                <mxCell id="ApwiqstQt8Peh4eSJjnf-467" value="" style="align=left;strokeColor=#CCCCCC;html=1;" parent="ApwiqstQt8Peh4eSJjnf-1" vertex="1">
                    <mxGeometry x="740" y="334" width="120" height="20" as="geometry"/>
                </mxCell>
                <mxCell id="ApwiqstQt8Peh4eSJjnf-468" value="" style="align=left;strokeColor=#CCCCCC;html=1;" parent="ApwiqstQt8Peh4eSJjnf-1" vertex="1">
                    <mxGeometry x="740" y="354" width="120" height="20" as="geometry"/>
                </mxCell>
                <mxCell id="ApwiqstQt8Peh4eSJjnf-469" value="" style="align=left;strokeColor=#CCCCCC;html=1;" parent="ApwiqstQt8Peh4eSJjnf-1" vertex="1">
                    <mxGeometry x="740" y="374" width="120" height="20" as="geometry"/>
                </mxCell>
                <mxCell id="ApwiqstQt8Peh4eSJjnf-470" value="" style="align=left;strokeColor=#CCCCCC;html=1;" parent="ApwiqstQt8Peh4eSJjnf-1" vertex="1">
                    <mxGeometry x="740" y="394" width="120" height="20" as="geometry"/>
                </mxCell>
                <mxCell id="ApwiqstQt8Peh4eSJjnf-471" value="" style="align=left;strokeColor=#CCCCCC;html=1;" parent="ApwiqstQt8Peh4eSJjnf-1" vertex="1">
                    <mxGeometry x="740" y="414" width="120" height="20" as="geometry"/>
                </mxCell>
                <mxCell id="ApwiqstQt8Peh4eSJjnf-472" value="" style="align=left;strokeColor=#CCCCCC;html=1;" parent="ApwiqstQt8Peh4eSJjnf-1" vertex="1">
                    <mxGeometry x="740" y="434" width="120" height="20" as="geometry"/>
                </mxCell>
                <mxCell id="ApwiqstQt8Peh4eSJjnf-473" value="" style="align=left;strokeColor=#CCCCCC;html=1;" parent="ApwiqstQt8Peh4eSJjnf-1" vertex="1">
                    <mxGeometry x="740" y="454" width="120" height="20" as="geometry"/>
                </mxCell>
                <mxCell id="ApwiqstQt8Peh4eSJjnf-474" value="" style="align=left;strokeColor=#CCCCCC;html=1;" parent="ApwiqstQt8Peh4eSJjnf-1" vertex="1">
                    <mxGeometry x="860" y="154" width="120" height="20" as="geometry"/>
                </mxCell>
                <mxCell id="ApwiqstQt8Peh4eSJjnf-475" value="" style="align=left;strokeColor=#CCCCCC;html=1;" parent="ApwiqstQt8Peh4eSJjnf-1" vertex="1">
                    <mxGeometry x="860" y="174" width="120" height="20" as="geometry"/>
                </mxCell>
                <mxCell id="ApwiqstQt8Peh4eSJjnf-476" value="" style="align=left;strokeColor=#CCCCCC;html=1;" parent="ApwiqstQt8Peh4eSJjnf-1" vertex="1">
                    <mxGeometry x="860" y="194" width="120" height="20" as="geometry"/>
                </mxCell>
                <mxCell id="ApwiqstQt8Peh4eSJjnf-477" value="" style="align=left;strokeColor=#CCCCCC;html=1;" parent="ApwiqstQt8Peh4eSJjnf-1" vertex="1">
                    <mxGeometry x="860" y="214" width="120" height="20" as="geometry"/>
                </mxCell>
                <mxCell id="ApwiqstQt8Peh4eSJjnf-478" value="" style="align=left;strokeColor=#CCCCCC;html=1;" parent="ApwiqstQt8Peh4eSJjnf-1" vertex="1">
                    <mxGeometry x="860" y="234" width="120" height="20" as="geometry"/>
                </mxCell>
                <mxCell id="ApwiqstQt8Peh4eSJjnf-479" value="" style="align=left;strokeColor=#CCCCCC;html=1;" parent="ApwiqstQt8Peh4eSJjnf-1" vertex="1">
                    <mxGeometry x="860" y="254" width="120" height="20" as="geometry"/>
                </mxCell>
                <mxCell id="ApwiqstQt8Peh4eSJjnf-480" value="" style="align=left;strokeColor=#CCCCCC;html=1;" parent="ApwiqstQt8Peh4eSJjnf-1" vertex="1">
                    <mxGeometry x="860" y="274" width="120" height="20" as="geometry"/>
                </mxCell>
                <mxCell id="ApwiqstQt8Peh4eSJjnf-481" value="" style="align=left;strokeColor=#CCCCCC;html=1;" parent="ApwiqstQt8Peh4eSJjnf-1" vertex="1">
                    <mxGeometry x="860" y="294" width="120" height="20" as="geometry"/>
                </mxCell>
                <mxCell id="ApwiqstQt8Peh4eSJjnf-482" value="" style="align=left;strokeColor=#CCCCCC;html=1;" parent="ApwiqstQt8Peh4eSJjnf-1" vertex="1">
                    <mxGeometry x="860" y="314" width="120" height="20" as="geometry"/>
                </mxCell>
                <mxCell id="ApwiqstQt8Peh4eSJjnf-483" value="" style="align=left;strokeColor=#CCCCCC;html=1;" parent="ApwiqstQt8Peh4eSJjnf-1" vertex="1">
                    <mxGeometry x="860" y="334" width="120" height="20" as="geometry"/>
                </mxCell>
                <mxCell id="ApwiqstQt8Peh4eSJjnf-484" value="" style="align=left;strokeColor=#CCCCCC;html=1;" parent="ApwiqstQt8Peh4eSJjnf-1" vertex="1">
                    <mxGeometry x="860" y="354" width="120" height="20" as="geometry"/>
                </mxCell>
                <mxCell id="ApwiqstQt8Peh4eSJjnf-485" value="" style="align=left;strokeColor=#CCCCCC;html=1;" parent="ApwiqstQt8Peh4eSJjnf-1" vertex="1">
                    <mxGeometry x="860" y="374" width="120" height="20" as="geometry"/>
                </mxCell>
                <mxCell id="ApwiqstQt8Peh4eSJjnf-486" value="" style="align=left;strokeColor=#CCCCCC;html=1;" parent="ApwiqstQt8Peh4eSJjnf-1" vertex="1">
                    <mxGeometry x="860" y="394" width="120" height="20" as="geometry"/>
                </mxCell>
                <mxCell id="ApwiqstQt8Peh4eSJjnf-487" value="" style="align=left;strokeColor=#CCCCCC;html=1;" parent="ApwiqstQt8Peh4eSJjnf-1" vertex="1">
                    <mxGeometry x="860" y="414" width="120" height="20" as="geometry"/>
                </mxCell>
                <mxCell id="ApwiqstQt8Peh4eSJjnf-488" value="" style="align=left;strokeColor=#CCCCCC;html=1;" parent="ApwiqstQt8Peh4eSJjnf-1" vertex="1">
                    <mxGeometry x="860" y="434" width="120" height="20" as="geometry"/>
                </mxCell>
                <mxCell id="ApwiqstQt8Peh4eSJjnf-489" value="" style="align=left;strokeColor=#CCCCCC;html=1;" parent="ApwiqstQt8Peh4eSJjnf-1" vertex="1">
                    <mxGeometry x="860" y="454" width="120" height="20" as="geometry"/>
                </mxCell>
                <mxCell id="ApwiqstQt8Peh4eSJjnf-490" value="" style="align=left;strokeColor=#CCCCCC;html=1;" parent="ApwiqstQt8Peh4eSJjnf-1" vertex="1">
                    <mxGeometry x="980" y="154" width="120" height="20" as="geometry"/>
                </mxCell>
                <mxCell id="ApwiqstQt8Peh4eSJjnf-491" value="" style="align=left;strokeColor=#CCCCCC;html=1;" parent="ApwiqstQt8Peh4eSJjnf-1" vertex="1">
                    <mxGeometry x="980" y="174" width="120" height="20" as="geometry"/>
                </mxCell>
                <mxCell id="ApwiqstQt8Peh4eSJjnf-492" value="" style="align=left;strokeColor=#CCCCCC;html=1;" parent="ApwiqstQt8Peh4eSJjnf-1" vertex="1">
                    <mxGeometry x="980" y="194" width="120" height="20" as="geometry"/>
                </mxCell>
                <mxCell id="ApwiqstQt8Peh4eSJjnf-493" value="" style="align=left;strokeColor=#CCCCCC;html=1;" parent="ApwiqstQt8Peh4eSJjnf-1" vertex="1">
                    <mxGeometry x="980" y="214" width="120" height="20" as="geometry"/>
                </mxCell>
                <mxCell id="ApwiqstQt8Peh4eSJjnf-494" value="" style="align=left;strokeColor=#CCCCCC;html=1;" parent="ApwiqstQt8Peh4eSJjnf-1" vertex="1">
                    <mxGeometry x="980" y="234" width="120" height="20" as="geometry"/>
                </mxCell>
                <mxCell id="ApwiqstQt8Peh4eSJjnf-495" value="" style="align=left;strokeColor=#CCCCCC;html=1;" parent="ApwiqstQt8Peh4eSJjnf-1" vertex="1">
                    <mxGeometry x="980" y="254" width="120" height="20" as="geometry"/>
                </mxCell>
                <mxCell id="ApwiqstQt8Peh4eSJjnf-496" value="" style="align=left;strokeColor=#CCCCCC;html=1;" parent="ApwiqstQt8Peh4eSJjnf-1" vertex="1">
                    <mxGeometry x="980" y="274" width="120" height="20" as="geometry"/>
                </mxCell>
                <mxCell id="ApwiqstQt8Peh4eSJjnf-497" value="" style="align=left;strokeColor=#CCCCCC;html=1;" parent="ApwiqstQt8Peh4eSJjnf-1" vertex="1">
                    <mxGeometry x="980" y="294" width="120" height="20" as="geometry"/>
                </mxCell>
                <mxCell id="ApwiqstQt8Peh4eSJjnf-498" value="" style="align=left;strokeColor=#CCCCCC;html=1;" parent="ApwiqstQt8Peh4eSJjnf-1" vertex="1">
                    <mxGeometry x="980" y="314" width="120" height="20" as="geometry"/>
                </mxCell>
                <mxCell id="ApwiqstQt8Peh4eSJjnf-499" value="" style="align=left;strokeColor=#CCCCCC;html=1;" parent="ApwiqstQt8Peh4eSJjnf-1" vertex="1">
                    <mxGeometry x="980" y="334" width="120" height="20" as="geometry"/>
                </mxCell>
                <mxCell id="ApwiqstQt8Peh4eSJjnf-500" value="" style="align=left;strokeColor=#CCCCCC;html=1;" parent="ApwiqstQt8Peh4eSJjnf-1" vertex="1">
                    <mxGeometry x="980" y="354" width="120" height="20" as="geometry"/>
                </mxCell>
                <mxCell id="ApwiqstQt8Peh4eSJjnf-501" value="" style="align=left;strokeColor=#CCCCCC;html=1;" parent="ApwiqstQt8Peh4eSJjnf-1" vertex="1">
                    <mxGeometry x="980" y="374" width="120" height="20" as="geometry"/>
                </mxCell>
                <mxCell id="ApwiqstQt8Peh4eSJjnf-502" value="" style="align=left;strokeColor=#CCCCCC;html=1;" parent="ApwiqstQt8Peh4eSJjnf-1" vertex="1">
                    <mxGeometry x="980" y="394" width="120" height="20" as="geometry"/>
                </mxCell>
                <mxCell id="ApwiqstQt8Peh4eSJjnf-503" value="" style="align=left;strokeColor=#CCCCCC;html=1;" parent="ApwiqstQt8Peh4eSJjnf-1" vertex="1">
                    <mxGeometry x="980" y="414" width="120" height="20" as="geometry"/>
                </mxCell>
                <mxCell id="ApwiqstQt8Peh4eSJjnf-504" value="" style="align=left;strokeColor=#CCCCCC;html=1;" parent="ApwiqstQt8Peh4eSJjnf-1" vertex="1">
                    <mxGeometry x="980" y="434" width="120" height="20" as="geometry"/>
                </mxCell>
                <mxCell id="ApwiqstQt8Peh4eSJjnf-505" value="" style="align=left;strokeColor=#CCCCCC;html=1;" parent="ApwiqstQt8Peh4eSJjnf-1" vertex="1">
                    <mxGeometry x="980" y="454" width="120" height="20" as="geometry"/>
                </mxCell>
                <mxCell id="ApwiqstQt8Peh4eSJjnf-506" value="" style="align=left;strokeColor=#CCCCCC;html=1;" parent="ApwiqstQt8Peh4eSJjnf-1" vertex="1">
                    <mxGeometry x="1100" y="154" width="120" height="20" as="geometry"/>
                </mxCell>
                <mxCell id="ApwiqstQt8Peh4eSJjnf-507" value="" style="align=left;strokeColor=#CCCCCC;html=1;" parent="ApwiqstQt8Peh4eSJjnf-1" vertex="1">
                    <mxGeometry x="1100" y="174" width="120" height="20" as="geometry"/>
                </mxCell>
                <mxCell id="ApwiqstQt8Peh4eSJjnf-508" value="" style="align=left;strokeColor=#CCCCCC;html=1;" parent="ApwiqstQt8Peh4eSJjnf-1" vertex="1">
                    <mxGeometry x="1100" y="194" width="120" height="20" as="geometry"/>
                </mxCell>
                <mxCell id="ApwiqstQt8Peh4eSJjnf-509" value="" style="align=left;strokeColor=#CCCCCC;html=1;" parent="ApwiqstQt8Peh4eSJjnf-1" vertex="1">
                    <mxGeometry x="1100" y="214" width="120" height="20" as="geometry"/>
                </mxCell>
                <mxCell id="ApwiqstQt8Peh4eSJjnf-510" value="" style="align=left;strokeColor=#CCCCCC;html=1;" parent="ApwiqstQt8Peh4eSJjnf-1" vertex="1">
                    <mxGeometry x="1100" y="234" width="120" height="20" as="geometry"/>
                </mxCell>
                <mxCell id="ApwiqstQt8Peh4eSJjnf-511" value="" style="align=left;strokeColor=#CCCCCC;html=1;" parent="ApwiqstQt8Peh4eSJjnf-1" vertex="1">
                    <mxGeometry x="1100" y="254" width="120" height="20" as="geometry"/>
                </mxCell>
                <mxCell id="ApwiqstQt8Peh4eSJjnf-512" value="" style="align=left;strokeColor=#CCCCCC;html=1;" parent="ApwiqstQt8Peh4eSJjnf-1" vertex="1">
                    <mxGeometry x="1100" y="274" width="120" height="20" as="geometry"/>
                </mxCell>
                <mxCell id="ApwiqstQt8Peh4eSJjnf-513" value="" style="align=left;strokeColor=#CCCCCC;html=1;" parent="ApwiqstQt8Peh4eSJjnf-1" vertex="1">
                    <mxGeometry x="1100" y="294" width="120" height="20" as="geometry"/>
                </mxCell>
                <mxCell id="ApwiqstQt8Peh4eSJjnf-514" value="" style="align=left;strokeColor=#CCCCCC;html=1;" parent="ApwiqstQt8Peh4eSJjnf-1" vertex="1">
                    <mxGeometry x="1100" y="314" width="120" height="20" as="geometry"/>
                </mxCell>
                <mxCell id="ApwiqstQt8Peh4eSJjnf-515" value="" style="align=left;strokeColor=#CCCCCC;html=1;" parent="ApwiqstQt8Peh4eSJjnf-1" vertex="1">
                    <mxGeometry x="1100" y="334" width="120" height="20" as="geometry"/>
                </mxCell>
                <mxCell id="ApwiqstQt8Peh4eSJjnf-516" value="" style="align=left;strokeColor=#CCCCCC;html=1;" parent="ApwiqstQt8Peh4eSJjnf-1" vertex="1">
                    <mxGeometry x="1100" y="354" width="120" height="20" as="geometry"/>
                </mxCell>
                <mxCell id="ApwiqstQt8Peh4eSJjnf-517" value="" style="align=left;strokeColor=#CCCCCC;html=1;" parent="ApwiqstQt8Peh4eSJjnf-1" vertex="1">
                    <mxGeometry x="1100" y="374" width="120" height="20" as="geometry"/>
                </mxCell>
                <mxCell id="ApwiqstQt8Peh4eSJjnf-518" value="" style="align=left;strokeColor=#CCCCCC;html=1;" parent="ApwiqstQt8Peh4eSJjnf-1" vertex="1">
                    <mxGeometry x="1100" y="394" width="120" height="20" as="geometry"/>
                </mxCell>
                <mxCell id="ApwiqstQt8Peh4eSJjnf-522" value="" style="align=left;strokeColor=#CCCCCC;html=1;" parent="ApwiqstQt8Peh4eSJjnf-1" vertex="1">
                    <mxGeometry x="1220" y="154" width="120" height="20" as="geometry"/>
                </mxCell>
                <mxCell id="ApwiqstQt8Peh4eSJjnf-523" value="" style="align=left;strokeColor=#CCCCCC;html=1;" parent="ApwiqstQt8Peh4eSJjnf-1" vertex="1">
                    <mxGeometry x="1220" y="174" width="120" height="20" as="geometry"/>
                </mxCell>
                <mxCell id="ApwiqstQt8Peh4eSJjnf-524" value="" style="align=left;strokeColor=#CCCCCC;html=1;" parent="ApwiqstQt8Peh4eSJjnf-1" vertex="1">
                    <mxGeometry x="1220" y="194" width="120" height="20" as="geometry"/>
                </mxCell>
                <mxCell id="ApwiqstQt8Peh4eSJjnf-525" value="" style="align=left;strokeColor=#CCCCCC;html=1;" parent="ApwiqstQt8Peh4eSJjnf-1" vertex="1">
                    <mxGeometry x="1220" y="214" width="120" height="20" as="geometry"/>
                </mxCell>
                <mxCell id="ApwiqstQt8Peh4eSJjnf-526" value="" style="align=left;strokeColor=#CCCCCC;html=1;" parent="ApwiqstQt8Peh4eSJjnf-1" vertex="1">
                    <mxGeometry x="1220" y="234" width="120" height="20" as="geometry"/>
                </mxCell>
                <mxCell id="ApwiqstQt8Peh4eSJjnf-527" value="" style="align=left;strokeColor=#CCCCCC;html=1;" parent="ApwiqstQt8Peh4eSJjnf-1" vertex="1">
                    <mxGeometry x="1220" y="254" width="120" height="20" as="geometry"/>
                </mxCell>
                <mxCell id="ApwiqstQt8Peh4eSJjnf-528" value="" style="align=left;strokeColor=#CCCCCC;html=1;" parent="ApwiqstQt8Peh4eSJjnf-1" vertex="1">
                    <mxGeometry x="1220" y="274" width="120" height="20" as="geometry"/>
                </mxCell>
                <mxCell id="ApwiqstQt8Peh4eSJjnf-529" value="" style="align=left;strokeColor=#CCCCCC;html=1;" parent="ApwiqstQt8Peh4eSJjnf-1" vertex="1">
                    <mxGeometry x="1220" y="294" width="120" height="20" as="geometry"/>
                </mxCell>
                <mxCell id="ApwiqstQt8Peh4eSJjnf-530" value="" style="align=left;strokeColor=#CCCCCC;html=1;" parent="ApwiqstQt8Peh4eSJjnf-1" vertex="1">
                    <mxGeometry x="1220" y="314" width="120" height="20" as="geometry"/>
                </mxCell>
                <mxCell id="ApwiqstQt8Peh4eSJjnf-531" value="" style="align=left;strokeColor=#CCCCCC;html=1;" parent="ApwiqstQt8Peh4eSJjnf-1" vertex="1">
                    <mxGeometry x="1220" y="334" width="120" height="20" as="geometry"/>
                </mxCell>
                <mxCell id="ApwiqstQt8Peh4eSJjnf-532" value="" style="align=left;strokeColor=#CCCCCC;html=1;" parent="ApwiqstQt8Peh4eSJjnf-1" vertex="1">
                    <mxGeometry x="1220" y="354" width="120" height="20" as="geometry"/>
                </mxCell>
                <mxCell id="ApwiqstQt8Peh4eSJjnf-533" value="" style="align=left;strokeColor=#CCCCCC;html=1;" parent="ApwiqstQt8Peh4eSJjnf-1" vertex="1">
                    <mxGeometry x="1220" y="374" width="120" height="20" as="geometry"/>
                </mxCell>
                <mxCell id="ApwiqstQt8Peh4eSJjnf-534" value="" style="align=left;strokeColor=#CCCCCC;html=1;" parent="ApwiqstQt8Peh4eSJjnf-1" vertex="1">
                    <mxGeometry x="1220" y="394" width="120" height="20" as="geometry"/>
                </mxCell>
                <mxCell id="ApwiqstQt8Peh4eSJjnf-538" value="" style="align=left;strokeColor=#CCCCCC;html=1;" parent="ApwiqstQt8Peh4eSJjnf-1" vertex="1">
                    <mxGeometry x="1340" y="154" width="120" height="20" as="geometry"/>
                </mxCell>
                <mxCell id="ApwiqstQt8Peh4eSJjnf-539" value="" style="align=left;strokeColor=#CCCCCC;html=1;" parent="ApwiqstQt8Peh4eSJjnf-1" vertex="1">
                    <mxGeometry x="1340" y="174" width="120" height="20" as="geometry"/>
                </mxCell>
                <mxCell id="ApwiqstQt8Peh4eSJjnf-540" value="" style="align=left;strokeColor=#CCCCCC;html=1;" parent="ApwiqstQt8Peh4eSJjnf-1" vertex="1">
                    <mxGeometry x="1340" y="194" width="120" height="20" as="geometry"/>
                </mxCell>
                <mxCell id="ApwiqstQt8Peh4eSJjnf-541" value="" style="align=left;strokeColor=#CCCCCC;html=1;" parent="ApwiqstQt8Peh4eSJjnf-1" vertex="1">
                    <mxGeometry x="1340" y="214" width="120" height="20" as="geometry"/>
                </mxCell>
                <mxCell id="ApwiqstQt8Peh4eSJjnf-542" value="" style="align=left;strokeColor=#CCCCCC;html=1;" parent="ApwiqstQt8Peh4eSJjnf-1" vertex="1">
                    <mxGeometry x="1340" y="234" width="120" height="20" as="geometry"/>
                </mxCell>
                <mxCell id="ApwiqstQt8Peh4eSJjnf-543" value="" style="align=left;strokeColor=#CCCCCC;html=1;" parent="ApwiqstQt8Peh4eSJjnf-1" vertex="1">
                    <mxGeometry x="1340" y="254" width="120" height="20" as="geometry"/>
                </mxCell>
                <mxCell id="ApwiqstQt8Peh4eSJjnf-544" value="" style="align=left;strokeColor=#CCCCCC;html=1;" parent="ApwiqstQt8Peh4eSJjnf-1" vertex="1">
                    <mxGeometry x="1340" y="274" width="120" height="20" as="geometry"/>
                </mxCell>
                <mxCell id="ApwiqstQt8Peh4eSJjnf-545" value="" style="align=left;strokeColor=#CCCCCC;html=1;" parent="ApwiqstQt8Peh4eSJjnf-1" vertex="1">
                    <mxGeometry x="1340" y="294" width="120" height="20" as="geometry"/>
                </mxCell>
                <mxCell id="ApwiqstQt8Peh4eSJjnf-546" value="" style="align=left;strokeColor=#CCCCCC;html=1;" parent="ApwiqstQt8Peh4eSJjnf-1" vertex="1">
                    <mxGeometry x="1340" y="314" width="120" height="20" as="geometry"/>
                </mxCell>
                <mxCell id="ApwiqstQt8Peh4eSJjnf-547" value="" style="align=left;strokeColor=#CCCCCC;html=1;" parent="ApwiqstQt8Peh4eSJjnf-1" vertex="1">
                    <mxGeometry x="1340" y="334" width="120" height="20" as="geometry"/>
                </mxCell>
                <mxCell id="ApwiqstQt8Peh4eSJjnf-548" value="" style="align=left;strokeColor=#CCCCCC;html=1;" parent="ApwiqstQt8Peh4eSJjnf-1" vertex="1">
                    <mxGeometry x="1340" y="354" width="120" height="20" as="geometry"/>
                </mxCell>
                <mxCell id="ApwiqstQt8Peh4eSJjnf-549" value="" style="align=left;strokeColor=#CCCCCC;html=1;" parent="ApwiqstQt8Peh4eSJjnf-1" vertex="1">
                    <mxGeometry x="1340" y="374" width="120" height="20" as="geometry"/>
                </mxCell>
                <mxCell id="ApwiqstQt8Peh4eSJjnf-550" value="" style="align=left;strokeColor=#CCCCCC;html=1;" parent="ApwiqstQt8Peh4eSJjnf-1" vertex="1">
                    <mxGeometry x="1340" y="394" width="120" height="20" as="geometry"/>
                </mxCell>
                <mxCell id="ApwiqstQt8Peh4eSJjnf-554" value="W1" style="strokeWidth=1;fontStyle=0;html=1;" parent="ApwiqstQt8Peh4eSJjnf-1" vertex="1">
                    <mxGeometry x="260" y="134" width="30" height="20" as="geometry"/>
                </mxCell>
                <mxCell id="ApwiqstQt8Peh4eSJjnf-555" value="W2" style="strokeWidth=1;fontStyle=0;html=1;" parent="ApwiqstQt8Peh4eSJjnf-1" vertex="1">
                    <mxGeometry x="290" y="134" width="30" height="20" as="geometry"/>
                </mxCell>
                <mxCell id="ApwiqstQt8Peh4eSJjnf-556" value="W3" style="strokeWidth=1;fontStyle=0;html=1;" parent="ApwiqstQt8Peh4eSJjnf-1" vertex="1">
                    <mxGeometry x="320" y="134" width="30" height="20" as="geometry"/>
                </mxCell>
                <mxCell id="ApwiqstQt8Peh4eSJjnf-557" value="W4" style="strokeWidth=1;fontStyle=0;html=1;" parent="ApwiqstQt8Peh4eSJjnf-1" vertex="1">
                    <mxGeometry x="350" y="134" width="30" height="20" as="geometry"/>
                </mxCell>
                <mxCell id="ApwiqstQt8Peh4eSJjnf-558" value="W1" style="strokeWidth=1;fontStyle=0;html=1;" parent="ApwiqstQt8Peh4eSJjnf-1" vertex="1">
                    <mxGeometry x="380" y="134" width="30" height="20" as="geometry"/>
                </mxCell>
                <mxCell id="ApwiqstQt8Peh4eSJjnf-559" value="W2" style="strokeWidth=1;fontStyle=0;html=1;" parent="ApwiqstQt8Peh4eSJjnf-1" vertex="1">
                    <mxGeometry x="410" y="134" width="30" height="20" as="geometry"/>
                </mxCell>
                <mxCell id="ApwiqstQt8Peh4eSJjnf-560" value="W3" style="strokeWidth=1;fontStyle=0;html=1;" parent="ApwiqstQt8Peh4eSJjnf-1" vertex="1">
                    <mxGeometry x="440" y="134" width="30" height="20" as="geometry"/>
                </mxCell>
                <mxCell id="ApwiqstQt8Peh4eSJjnf-561" value="W4" style="strokeWidth=1;fontStyle=0;html=1;" parent="ApwiqstQt8Peh4eSJjnf-1" vertex="1">
                    <mxGeometry x="470" y="134" width="30" height="20" as="geometry"/>
                </mxCell>
                <mxCell id="ApwiqstQt8Peh4eSJjnf-562" value="W1" style="strokeWidth=1;fontStyle=0;html=1;" parent="ApwiqstQt8Peh4eSJjnf-1" vertex="1">
                    <mxGeometry x="500" y="134" width="30" height="20" as="geometry"/>
                </mxCell>
                <mxCell id="ApwiqstQt8Peh4eSJjnf-563" value="W2" style="strokeWidth=1;fontStyle=0;html=1;" parent="ApwiqstQt8Peh4eSJjnf-1" vertex="1">
                    <mxGeometry x="530" y="134" width="30" height="20" as="geometry"/>
                </mxCell>
                <mxCell id="ApwiqstQt8Peh4eSJjnf-564" value="W3" style="strokeWidth=1;fontStyle=0;html=1;" parent="ApwiqstQt8Peh4eSJjnf-1" vertex="1">
                    <mxGeometry x="560" y="134" width="30" height="20" as="geometry"/>
                </mxCell>
                <mxCell id="ApwiqstQt8Peh4eSJjnf-565" value="W4" style="strokeWidth=1;fontStyle=0;html=1;" parent="ApwiqstQt8Peh4eSJjnf-1" vertex="1">
                    <mxGeometry x="590" y="134" width="30" height="20" as="geometry"/>
                </mxCell>
                <mxCell id="ApwiqstQt8Peh4eSJjnf-566" value="W1" style="strokeWidth=1;fontStyle=0;html=1;" parent="ApwiqstQt8Peh4eSJjnf-1" vertex="1">
                    <mxGeometry x="620" y="134" width="30" height="20" as="geometry"/>
                </mxCell>
                <mxCell id="ApwiqstQt8Peh4eSJjnf-567" value="W2" style="strokeWidth=1;fontStyle=0;html=1;" parent="ApwiqstQt8Peh4eSJjnf-1" vertex="1">
                    <mxGeometry x="650" y="134" width="30" height="20" as="geometry"/>
                </mxCell>
                <mxCell id="ApwiqstQt8Peh4eSJjnf-568" value="W3" style="strokeWidth=1;fontStyle=0;html=1;" parent="ApwiqstQt8Peh4eSJjnf-1" vertex="1">
                    <mxGeometry x="680" y="134" width="30" height="20" as="geometry"/>
                </mxCell>
                <mxCell id="ApwiqstQt8Peh4eSJjnf-569" value="W4" style="strokeWidth=1;fontStyle=0;html=1;" parent="ApwiqstQt8Peh4eSJjnf-1" vertex="1">
                    <mxGeometry x="710" y="134" width="30" height="20" as="geometry"/>
                </mxCell>
                <mxCell id="ApwiqstQt8Peh4eSJjnf-570" value="W1" style="strokeWidth=1;fontStyle=0;html=1;" parent="ApwiqstQt8Peh4eSJjnf-1" vertex="1">
                    <mxGeometry x="740" y="134" width="30" height="20" as="geometry"/>
                </mxCell>
                <mxCell id="ApwiqstQt8Peh4eSJjnf-571" value="W2" style="strokeWidth=1;fontStyle=0;html=1;" parent="ApwiqstQt8Peh4eSJjnf-1" vertex="1">
                    <mxGeometry x="770" y="134" width="30" height="20" as="geometry"/>
                </mxCell>
                <mxCell id="ApwiqstQt8Peh4eSJjnf-572" value="W3" style="strokeWidth=1;fontStyle=0;html=1;" parent="ApwiqstQt8Peh4eSJjnf-1" vertex="1">
                    <mxGeometry x="800" y="134" width="30" height="20" as="geometry"/>
                </mxCell>
                <mxCell id="ApwiqstQt8Peh4eSJjnf-573" value="W4" style="strokeWidth=1;fontStyle=0;html=1;" parent="ApwiqstQt8Peh4eSJjnf-1" vertex="1">
                    <mxGeometry x="830" y="134" width="30" height="20" as="geometry"/>
                </mxCell>
                <mxCell id="ApwiqstQt8Peh4eSJjnf-574" value="W1" style="strokeWidth=1;fontStyle=0;html=1;" parent="ApwiqstQt8Peh4eSJjnf-1" vertex="1">
                    <mxGeometry x="860" y="134" width="30" height="20" as="geometry"/>
                </mxCell>
                <mxCell id="ApwiqstQt8Peh4eSJjnf-575" value="W2" style="strokeWidth=1;fontStyle=0;html=1;" parent="ApwiqstQt8Peh4eSJjnf-1" vertex="1">
                    <mxGeometry x="890" y="134" width="30" height="20" as="geometry"/>
                </mxCell>
                <mxCell id="ApwiqstQt8Peh4eSJjnf-576" value="W3" style="strokeWidth=1;fontStyle=0;html=1;" parent="ApwiqstQt8Peh4eSJjnf-1" vertex="1">
                    <mxGeometry x="920" y="134" width="30" height="20" as="geometry"/>
                </mxCell>
                <mxCell id="ApwiqstQt8Peh4eSJjnf-577" value="W4" style="strokeWidth=1;fontStyle=0;html=1;" parent="ApwiqstQt8Peh4eSJjnf-1" vertex="1">
                    <mxGeometry x="950" y="134" width="30" height="20" as="geometry"/>
                </mxCell>
                <mxCell id="ApwiqstQt8Peh4eSJjnf-578" value="W1" style="strokeWidth=1;fontStyle=0;html=1;" parent="ApwiqstQt8Peh4eSJjnf-1" vertex="1">
                    <mxGeometry x="980" y="134" width="30" height="20" as="geometry"/>
                </mxCell>
                <mxCell id="ApwiqstQt8Peh4eSJjnf-590" value="W1" style="strokeWidth=1;fontStyle=0;html=1;" parent="ApwiqstQt8Peh4eSJjnf-1" vertex="1">
                    <mxGeometry x="140" y="134" width="30" height="20" as="geometry"/>
                </mxCell>
                <mxCell id="ApwiqstQt8Peh4eSJjnf-591" value="W2" style="strokeWidth=1;fontStyle=0;html=1;" parent="ApwiqstQt8Peh4eSJjnf-1" vertex="1">
                    <mxGeometry x="170" y="134" width="30" height="20" as="geometry"/>
                </mxCell>
                <mxCell id="ApwiqstQt8Peh4eSJjnf-592" value="W3" style="strokeWidth=1;fontStyle=0;html=1;" parent="ApwiqstQt8Peh4eSJjnf-1" vertex="1">
                    <mxGeometry x="200" y="134" width="30" height="20" as="geometry"/>
                </mxCell>
                <mxCell id="ApwiqstQt8Peh4eSJjnf-593" value="W4" style="strokeWidth=1;fontStyle=0;html=1;" parent="ApwiqstQt8Peh4eSJjnf-1" vertex="1">
                    <mxGeometry x="230" y="134" width="30" height="20" as="geometry"/>
                </mxCell>
                <mxCell id="ApwiqstQt8Peh4eSJjnf-594" value="W1" style="strokeWidth=1;fontStyle=0;html=1;" parent="ApwiqstQt8Peh4eSJjnf-1" vertex="1">
                    <mxGeometry x="20" y="134" width="30" height="20" as="geometry"/>
                </mxCell>
                <mxCell id="ApwiqstQt8Peh4eSJjnf-595" value="W2" style="strokeWidth=1;fontStyle=0;html=1;" parent="ApwiqstQt8Peh4eSJjnf-1" vertex="1">
                    <mxGeometry x="50" y="134" width="30" height="20" as="geometry"/>
                </mxCell>
                <mxCell id="ApwiqstQt8Peh4eSJjnf-596" value="W3" style="strokeWidth=1;fontStyle=0;html=1;" parent="ApwiqstQt8Peh4eSJjnf-1" vertex="1">
                    <mxGeometry x="80" y="134" width="30" height="20" as="geometry"/>
                </mxCell>
                <mxCell id="ApwiqstQt8Peh4eSJjnf-597" value="W4" style="strokeWidth=1;fontStyle=0;html=1;" parent="ApwiqstQt8Peh4eSJjnf-1" vertex="1">
                    <mxGeometry x="110" y="134" width="30" height="20" as="geometry"/>
                </mxCell>
                <mxCell id="ApwiqstQt8Peh4eSJjnf-602" value="Task 1" style="align=left;strokeColor=#6c8ebf;html=1;fillColor=#dae8fc;" parent="ApwiqstQt8Peh4eSJjnf-1" vertex="1">
                    <mxGeometry x="20" y="154" width="90" height="20" as="geometry"/>
                </mxCell>
                <mxCell id="ApwiqstQt8Peh4eSJjnf-603" value="Task 2" style="align=left;strokeColor=#6c8ebf;html=1;fillColor=#dae8fc;" parent="ApwiqstQt8Peh4eSJjnf-1" vertex="1">
                    <mxGeometry x="110" y="174" width="60" height="20" as="geometry"/>
                </mxCell>
                <mxCell id="ApwiqstQt8Peh4eSJjnf-604" value="Task 3" style="align=left;strokeColor=#6c8ebf;html=1;fillColor=#dae8fc;" parent="ApwiqstQt8Peh4eSJjnf-1" vertex="1">
                    <mxGeometry x="170" y="194" width="120" height="20" as="geometry"/>
                </mxCell>
                <mxCell id="ApwiqstQt8Peh4eSJjnf-605" value="Task 4" style="align=left;strokeColor=#6c8ebf;html=1;fillColor=#dae8fc;" parent="ApwiqstQt8Peh4eSJjnf-1" vertex="1">
                    <mxGeometry x="170" y="214" width="60" height="20" as="geometry"/>
                </mxCell>
                <mxCell id="ApwiqstQt8Peh4eSJjnf-606" value="Task 5" style="align=left;strokeColor=#6c8ebf;html=1;fillColor=#dae8fc;" parent="ApwiqstQt8Peh4eSJjnf-1" vertex="1">
                    <mxGeometry x="230" y="234" width="60" height="20" as="geometry"/>
                </mxCell>
                <mxCell id="ApwiqstQt8Peh4eSJjnf-607" value="Task 6" style="align=left;strokeColor=#6c8ebf;html=1;fillColor=#dae8fc;" parent="ApwiqstQt8Peh4eSJjnf-1" vertex="1">
                    <mxGeometry x="290" y="254" width="180" height="20" as="geometry"/>
                </mxCell>
                <mxCell id="ApwiqstQt8Peh4eSJjnf-608" value="Task 7" style="align=left;strokeColor=#6c8ebf;html=1;fillColor=#dae8fc;" parent="ApwiqstQt8Peh4eSJjnf-1" vertex="1">
                    <mxGeometry x="470" y="274" width="150" height="20" as="geometry"/>
                </mxCell>
                <mxCell id="ApwiqstQt8Peh4eSJjnf-609" value="Task 8" style="align=left;strokeColor=#6c8ebf;html=1;fillColor=#dae8fc;" parent="ApwiqstQt8Peh4eSJjnf-1" vertex="1">
                    <mxGeometry x="620" y="294" width="60" height="20" as="geometry"/>
                </mxCell>
                <mxCell id="ApwiqstQt8Peh4eSJjnf-610" value="Task 9" style="align=left;strokeColor=#6c8ebf;html=1;fillColor=#dae8fc;" parent="ApwiqstQt8Peh4eSJjnf-1" vertex="1">
                    <mxGeometry x="620" y="314" width="60" height="20" as="geometry"/>
                </mxCell>
                <mxCell id="ApwiqstQt8Peh4eSJjnf-611" value="Task 10" style="align=left;strokeColor=#6c8ebf;html=1;fillColor=#dae8fc;" parent="ApwiqstQt8Peh4eSJjnf-1" vertex="1">
                    <mxGeometry x="620" y="334" width="60" height="20" as="geometry"/>
                </mxCell>
                <mxCell id="ApwiqstQt8Peh4eSJjnf-612" value="Task 11" style="align=left;strokeColor=#6c8ebf;html=1;fillColor=#dae8fc;" parent="ApwiqstQt8Peh4eSJjnf-1" vertex="1">
                    <mxGeometry x="680" y="354" width="150" height="20" as="geometry"/>
                </mxCell>
                <mxCell id="ApwiqstQt8Peh4eSJjnf-613" value="Task 12" style="align=left;strokeColor=#6c8ebf;html=1;fillColor=#dae8fc;" parent="ApwiqstQt8Peh4eSJjnf-1" vertex="1">
                    <mxGeometry x="830" y="374" width="90" height="20" as="geometry"/>
                </mxCell>
                <mxCell id="ApwiqstQt8Peh4eSJjnf-614" value="Task 13" style="align=left;strokeColor=#6c8ebf;html=1;fillColor=#dae8fc;" parent="ApwiqstQt8Peh4eSJjnf-1" vertex="1">
                    <mxGeometry x="920" y="394" width="90" height="20" as="geometry"/>
                </mxCell>
                <mxCell id="ApwiqstQt8Peh4eSJjnf-615" value="Task 14" style="align=left;strokeColor=#6c8ebf;html=1;fillColor=#dae8fc;" parent="ApwiqstQt8Peh4eSJjnf-1" vertex="1">
                    <mxGeometry x="920" y="414" width="90" height="20" as="geometry"/>
                </mxCell>
            </root>
        </mxGraphModel>
    </diagram>
    <diagram id="dQ9xH5SsLcaQzoFYn2ux" name="线性表">
        <mxGraphModel dx="92" dy="7680" grid="0" gridSize="10" guides="1" tooltips="1" connect="1" arrows="1" fold="1" page="0" pageScale="1" pageWidth="1169" pageHeight="827" background="#808080" math="0" shadow="0">
            <root>
                <mxCell id="R9Chl-BOTtRfElairSPf-0"/>
                <mxCell id="R9Chl-BOTtRfElairSPf-1" parent="R9Chl-BOTtRfElairSPf-0"/>
                <mxCell id="ID3q5hRP-n-db3l4BBHP-20" value="逻辑地址" style="align=center;strokeColor=#FFFF66;html=1;fillColor=none;strokeWidth=2;" parent="R9Chl-BOTtRfElairSPf-1" vertex="1">
                    <mxGeometry x="1514" y="-7044" width="80" height="20" as="geometry"/>
                </mxCell>
                <mxCell id="ID3q5hRP-n-db3l4BBHP-21" value="0&amp;nbsp;" style="align=center;strokeColor=none;html=1;fillColor=none;strokeWidth=2;" parent="R9Chl-BOTtRfElairSPf-1" vertex="1">
                    <mxGeometry x="1514" y="-7024" width="80" height="20" as="geometry"/>
                </mxCell>
                <mxCell id="ID3q5hRP-n-db3l4BBHP-22" value="1" style="align=center;strokeColor=none;html=1;fillColor=none;strokeWidth=2;" parent="R9Chl-BOTtRfElairSPf-1" vertex="1">
                    <mxGeometry x="1514" y="-7004" width="80" height="20" as="geometry"/>
                </mxCell>
                <mxCell id="ID3q5hRP-n-db3l4BBHP-23" value="2" style="align=center;strokeColor=none;html=1;fillColor=none;strokeWidth=2;" parent="R9Chl-BOTtRfElairSPf-1" vertex="1">
                    <mxGeometry x="1514" y="-6984" width="80" height="20" as="geometry"/>
                </mxCell>
                <mxCell id="ID3q5hRP-n-db3l4BBHP-24" value="3" style="align=center;strokeColor=none;html=1;fillColor=none;strokeWidth=2;" parent="R9Chl-BOTtRfElairSPf-1" vertex="1">
                    <mxGeometry x="1514" y="-6964" width="80" height="20" as="geometry"/>
                </mxCell>
                <mxCell id="ID3q5hRP-n-db3l4BBHP-25" value="4" style="align=center;strokeColor=none;html=1;fillColor=none;strokeWidth=2;" parent="R9Chl-BOTtRfElairSPf-1" vertex="1">
                    <mxGeometry x="1514" y="-6944" width="80" height="20" as="geometry"/>
                </mxCell>
                <mxCell id="ID3q5hRP-n-db3l4BBHP-26" value="" style="align=center;strokeColor=none;html=1;fillColor=none;strokeWidth=2;" parent="R9Chl-BOTtRfElairSPf-1" vertex="1">
                    <mxGeometry x="1514" y="-6924" width="80" height="40" as="geometry"/>
                </mxCell>
                <mxCell id="ID3q5hRP-n-db3l4BBHP-27" value="n-1" style="align=center;strokeColor=none;html=1;fillColor=none;strokeWidth=2;" parent="R9Chl-BOTtRfElairSPf-1" vertex="1">
                    <mxGeometry x="1514" y="-6884" width="80" height="20" as="geometry"/>
                </mxCell>
                <mxCell id="ID3q5hRP-n-db3l4BBHP-28" value="元素存储" style="align=center;strokeColor=#FFFF66;html=1;fillColor=none;strokeWidth=2;" parent="R9Chl-BOTtRfElairSPf-1" vertex="1">
                    <mxGeometry x="1594" y="-7044" width="80" height="20" as="geometry"/>
                </mxCell>
                <mxCell id="ID3q5hRP-n-db3l4BBHP-29" value="a&lt;sub&gt;0&lt;/sub&gt;" style="align=center;strokeColor=#FFFF66;html=1;fillColor=none;strokeWidth=2;" parent="R9Chl-BOTtRfElairSPf-1" vertex="1">
                    <mxGeometry x="1594" y="-7024" width="80" height="20" as="geometry"/>
                </mxCell>
                <mxCell id="ID3q5hRP-n-db3l4BBHP-30" value="a&lt;sub&gt;1&lt;/sub&gt;" style="align=center;strokeColor=#FFFF66;html=1;fillColor=none;strokeWidth=2;" parent="R9Chl-BOTtRfElairSPf-1" vertex="1">
                    <mxGeometry x="1594" y="-7004" width="80" height="20" as="geometry"/>
                </mxCell>
                <mxCell id="ID3q5hRP-n-db3l4BBHP-31" value="a&lt;span style=&quot;font-size: 10px&quot;&gt;&lt;sub&gt;2&lt;/sub&gt;&lt;/span&gt;" style="align=center;strokeColor=#FFFF66;html=1;fillColor=none;strokeWidth=2;" parent="R9Chl-BOTtRfElairSPf-1" vertex="1">
                    <mxGeometry x="1594" y="-6984" width="80" height="20" as="geometry"/>
                </mxCell>
                <mxCell id="ID3q5hRP-n-db3l4BBHP-32" value="a&lt;sub&gt;3&lt;/sub&gt;" style="align=center;strokeColor=#FFFF66;html=1;fillColor=none;strokeWidth=2;" parent="R9Chl-BOTtRfElairSPf-1" vertex="1">
                    <mxGeometry x="1594" y="-6964" width="80" height="20" as="geometry"/>
                </mxCell>
                <mxCell id="ID3q5hRP-n-db3l4BBHP-33" value="a&lt;sub&gt;4&lt;/sub&gt;" style="align=center;strokeColor=#FFFF66;html=1;fillColor=none;strokeWidth=2;" parent="R9Chl-BOTtRfElairSPf-1" vertex="1">
                    <mxGeometry x="1594" y="-6944" width="80" height="20" as="geometry"/>
                </mxCell>
                <mxCell id="ID3q5hRP-n-db3l4BBHP-34" value="a&lt;sub&gt;n-1&lt;/sub&gt;" style="align=center;strokeColor=#FFFF66;html=1;fillColor=none;strokeWidth=2;" parent="R9Chl-BOTtRfElairSPf-1" vertex="1">
                    <mxGeometry x="1594" y="-6884" width="80" height="20" as="geometry"/>
                </mxCell>
                <mxCell id="ID3q5hRP-n-db3l4BBHP-35" value="物理地址" style="align=center;strokeColor=#FFFF66;html=1;fillColor=none;strokeWidth=2;" parent="R9Chl-BOTtRfElairSPf-1" vertex="1">
                    <mxGeometry x="1674" y="-7044" width="95" height="20" as="geometry"/>
                </mxCell>
                <mxCell id="ID3q5hRP-n-db3l4BBHP-36" value="L&lt;sub&gt;0&lt;/sub&gt;" style="align=center;strokeColor=none;html=1;fillColor=none;strokeWidth=2;" parent="R9Chl-BOTtRfElairSPf-1" vertex="1">
                    <mxGeometry x="1674" y="-7024" width="95" height="20" as="geometry"/>
                </mxCell>
                <mxCell id="ID3q5hRP-n-db3l4BBHP-37" value="L&lt;sub&gt;1&amp;nbsp;&lt;/sub&gt;=L&lt;sub&gt;0&lt;/sub&gt;+1*c" style="align=center;strokeColor=none;html=1;fillColor=none;strokeWidth=2;" parent="R9Chl-BOTtRfElairSPf-1" vertex="1">
                    <mxGeometry x="1674" y="-7004" width="95" height="20" as="geometry"/>
                </mxCell>
                <mxCell id="ID3q5hRP-n-db3l4BBHP-38" value="L&lt;sub&gt;2&amp;nbsp;&lt;/sub&gt;=L&lt;sub&gt;0&lt;/sub&gt;+2*c" style="align=center;strokeColor=none;html=1;fillColor=none;strokeWidth=2;" parent="R9Chl-BOTtRfElairSPf-1" vertex="1">
                    <mxGeometry x="1674" y="-6984" width="95" height="20" as="geometry"/>
                </mxCell>
                <mxCell id="ID3q5hRP-n-db3l4BBHP-39" value="L&lt;sub&gt;3&amp;nbsp;&lt;/sub&gt;=L&lt;sub&gt;0&lt;/sub&gt;+3*c" style="align=center;strokeColor=none;html=1;fillColor=none;strokeWidth=2;" parent="R9Chl-BOTtRfElairSPf-1" vertex="1">
                    <mxGeometry x="1674" y="-6964" width="95" height="20" as="geometry"/>
                </mxCell>
                <mxCell id="ID3q5hRP-n-db3l4BBHP-40" value="L&lt;sub&gt;4&amp;nbsp;&lt;/sub&gt;=L&lt;sub&gt;0&lt;/sub&gt;+4*c" style="align=center;strokeColor=none;html=1;fillColor=none;strokeWidth=2;" parent="R9Chl-BOTtRfElairSPf-1" vertex="1">
                    <mxGeometry x="1674" y="-6944" width="95" height="20" as="geometry"/>
                </mxCell>
                <mxCell id="ID3q5hRP-n-db3l4BBHP-41" value="" style="align=center;strokeColor=none;html=1;fillColor=none;strokeWidth=2;" parent="R9Chl-BOTtRfElairSPf-1" vertex="1">
                    <mxGeometry x="1674" y="-6924" width="95" height="40" as="geometry"/>
                </mxCell>
                <mxCell id="ID3q5hRP-n-db3l4BBHP-42" value="L&lt;sub&gt;n-1&amp;nbsp;&lt;/sub&gt;=L&lt;sub&gt;0&lt;/sub&gt;+(n-1)*c" style="align=center;strokeColor=none;html=1;fillColor=none;strokeWidth=2;" parent="R9Chl-BOTtRfElairSPf-1" vertex="1">
                    <mxGeometry x="1674" y="-6884" width="95" height="20" as="geometry"/>
                </mxCell>
                <mxCell id="ID3q5hRP-n-db3l4BBHP-43" value="逻辑地址" style="align=center;strokeColor=#FFFF66;html=1;fillColor=none;strokeWidth=2;" parent="R9Chl-BOTtRfElairSPf-1" vertex="1">
                    <mxGeometry x="1511" y="-6565" width="80" height="20" as="geometry"/>
                </mxCell>
                <mxCell id="ID3q5hRP-n-db3l4BBHP-44" value="0&amp;nbsp;" style="align=center;strokeColor=none;html=1;fillColor=none;strokeWidth=2;" parent="R9Chl-BOTtRfElairSPf-1" vertex="1">
                    <mxGeometry x="1511" y="-6545" width="80" height="20" as="geometry"/>
                </mxCell>
                <mxCell id="ID3q5hRP-n-db3l4BBHP-45" value="1" style="align=center;strokeColor=none;html=1;fillColor=none;strokeWidth=2;" parent="R9Chl-BOTtRfElairSPf-1" vertex="1">
                    <mxGeometry x="1511" y="-6525" width="80" height="20" as="geometry"/>
                </mxCell>
                <mxCell id="ID3q5hRP-n-db3l4BBHP-46" value="3" style="align=center;strokeColor=none;html=1;fillColor=none;strokeWidth=2;" parent="R9Chl-BOTtRfElairSPf-1" vertex="1">
                    <mxGeometry x="1511" y="-6485" width="80" height="20" as="geometry"/>
                </mxCell>
                <mxCell id="ID3q5hRP-n-db3l4BBHP-47" value="4" style="align=center;strokeColor=none;html=1;fillColor=none;strokeWidth=2;" parent="R9Chl-BOTtRfElairSPf-1" vertex="1">
                    <mxGeometry x="1511" y="-6465" width="80" height="20" as="geometry"/>
                </mxCell>
                <mxCell id="ID3q5hRP-n-db3l4BBHP-48" value="" style="align=center;strokeColor=none;html=1;fillColor=none;strokeWidth=2;" parent="R9Chl-BOTtRfElairSPf-1" vertex="1">
                    <mxGeometry x="1511" y="-6445" width="80" height="40" as="geometry"/>
                </mxCell>
                <mxCell id="ID3q5hRP-n-db3l4BBHP-49" value="n-1" style="align=center;strokeColor=none;html=1;fillColor=none;strokeWidth=2;" parent="R9Chl-BOTtRfElairSPf-1" vertex="1">
                    <mxGeometry x="1511" y="-6405" width="80" height="20" as="geometry"/>
                </mxCell>
                <mxCell id="ID3q5hRP-n-db3l4BBHP-50" value="元素存储" style="align=center;strokeColor=#FFFF66;html=1;fillColor=none;strokeWidth=2;" parent="R9Chl-BOTtRfElairSPf-1" vertex="1">
                    <mxGeometry x="1189" y="-6874" width="80" height="20" as="geometry"/>
                </mxCell>
                <mxCell id="ID3q5hRP-n-db3l4BBHP-51" value="a&lt;sub&gt;0&lt;/sub&gt;" style="align=center;strokeColor=#FFFF66;html=1;fillColor=none;strokeWidth=2;" parent="R9Chl-BOTtRfElairSPf-1" vertex="1">
                    <mxGeometry x="1189" y="-6854" width="80" height="20" as="geometry"/>
                </mxCell>
                <mxCell id="ID3q5hRP-n-db3l4BBHP-52" value="a&lt;sub&gt;1&lt;/sub&gt;" style="align=center;strokeColor=#FFFF66;html=1;fillColor=none;strokeWidth=2;" parent="R9Chl-BOTtRfElairSPf-1" vertex="1">
                    <mxGeometry x="1189" y="-6834" width="80" height="20" as="geometry"/>
                </mxCell>
                <mxCell id="ID3q5hRP-n-db3l4BBHP-53" value="a&lt;span style=&quot;font-size: 10px&quot;&gt;&lt;sub&gt;2&lt;/sub&gt;&lt;/span&gt;" style="align=center;strokeColor=#FFFF66;html=1;fillColor=none;strokeWidth=2;" parent="R9Chl-BOTtRfElairSPf-1" vertex="1">
                    <mxGeometry x="1189" y="-6814" width="80" height="20" as="geometry"/>
                </mxCell>
                <mxCell id="ID3q5hRP-n-db3l4BBHP-54" value="a&lt;sub&gt;3&lt;/sub&gt;" style="align=center;strokeColor=#FFFF66;html=1;fillColor=none;strokeWidth=2;" parent="R9Chl-BOTtRfElairSPf-1" vertex="1">
                    <mxGeometry x="1189" y="-6794" width="80" height="20" as="geometry"/>
                </mxCell>
                <mxCell id="ID3q5hRP-n-db3l4BBHP-55" value="a&lt;sub&gt;4&lt;/sub&gt;" style="align=center;strokeColor=#FFFF66;html=1;fillColor=none;strokeWidth=2;" parent="R9Chl-BOTtRfElairSPf-1" vertex="1">
                    <mxGeometry x="1189" y="-6774" width="80" height="20" as="geometry"/>
                </mxCell>
                <mxCell id="ID3q5hRP-n-db3l4BBHP-56" value=".&lt;br style=&quot;font-size: 10px;&quot;&gt;.&lt;br style=&quot;font-size: 10px;&quot;&gt;." style="align=center;strokeColor=#FFFF66;html=1;fillColor=none;strokeWidth=2;fontSize=10;spacing=0;horizontal=1;spacingTop=-4;" parent="R9Chl-BOTtRfElairSPf-1" vertex="1">
                    <mxGeometry x="1189" y="-6754" width="80" height="40" as="geometry"/>
                </mxCell>
                <mxCell id="ID3q5hRP-n-db3l4BBHP-57" value="a&lt;sub&gt;n-1&lt;/sub&gt;" style="align=center;strokeColor=#FFFF66;html=1;fillColor=none;strokeWidth=2;" parent="R9Chl-BOTtRfElairSPf-1" vertex="1">
                    <mxGeometry x="1189" y="-6714" width="80" height="20" as="geometry"/>
                </mxCell>
                <mxCell id="ID3q5hRP-n-db3l4BBHP-58" value="物理地址" style="align=center;strokeColor=#FFFF66;html=1;fillColor=none;strokeWidth=2;" parent="R9Chl-BOTtRfElairSPf-1" vertex="1">
                    <mxGeometry x="1590.5" y="-6565" width="95" height="20" as="geometry"/>
                </mxCell>
                <mxCell id="ID3q5hRP-n-db3l4BBHP-59" value="L&lt;sub&gt;0&lt;/sub&gt;" style="align=center;strokeColor=none;html=1;fillColor=none;strokeWidth=2;" parent="R9Chl-BOTtRfElairSPf-1" vertex="1">
                    <mxGeometry x="1590.5" y="-6545" width="95" height="20" as="geometry"/>
                </mxCell>
                <mxCell id="ID3q5hRP-n-db3l4BBHP-60" value="L&lt;sub&gt;1&amp;nbsp;&lt;/sub&gt;=L&lt;sub&gt;0&lt;/sub&gt;+1*c" style="align=center;strokeColor=none;html=1;fillColor=none;strokeWidth=2;" parent="R9Chl-BOTtRfElairSPf-1" vertex="1">
                    <mxGeometry x="1590.5" y="-6525" width="95" height="20" as="geometry"/>
                </mxCell>
                <mxCell id="ID3q5hRP-n-db3l4BBHP-61" value="L&lt;sub&gt;2&amp;nbsp;&lt;/sub&gt;=L&lt;sub&gt;0&lt;/sub&gt;+2*c" style="align=center;strokeColor=none;html=1;fillColor=none;strokeWidth=2;" parent="R9Chl-BOTtRfElairSPf-1" vertex="1">
                    <mxGeometry x="1590.5" y="-6505" width="95" height="20" as="geometry"/>
                </mxCell>
                <mxCell id="ID3q5hRP-n-db3l4BBHP-62" value="L&lt;sub&gt;3&amp;nbsp;&lt;/sub&gt;=L&lt;sub&gt;0&lt;/sub&gt;+3*c" style="align=center;strokeColor=none;html=1;fillColor=none;strokeWidth=2;" parent="R9Chl-BOTtRfElairSPf-1" vertex="1">
                    <mxGeometry x="1590.5" y="-6485" width="95" height="20" as="geometry"/>
                </mxCell>
                <mxCell id="ID3q5hRP-n-db3l4BBHP-63" value="L&lt;sub&gt;4&amp;nbsp;&lt;/sub&gt;=L&lt;sub&gt;0&lt;/sub&gt;+4*c" style="align=center;strokeColor=none;html=1;fillColor=none;strokeWidth=2;" parent="R9Chl-BOTtRfElairSPf-1" vertex="1">
                    <mxGeometry x="1590.5" y="-6465" width="95" height="20" as="geometry"/>
                </mxCell>
                <mxCell id="ID3q5hRP-n-db3l4BBHP-64" value="" style="align=center;strokeColor=none;html=1;fillColor=none;strokeWidth=2;" parent="R9Chl-BOTtRfElairSPf-1" vertex="1">
                    <mxGeometry x="1590.5" y="-6445" width="95" height="40" as="geometry"/>
                </mxCell>
                <mxCell id="ID3q5hRP-n-db3l4BBHP-65" value="L&lt;sub&gt;n-1&amp;nbsp;&lt;/sub&gt;=L&lt;sub&gt;0&lt;/sub&gt;+(n-1)*c" style="align=center;strokeColor=none;html=1;fillColor=none;strokeWidth=2;" parent="R9Chl-BOTtRfElairSPf-1" vertex="1">
                    <mxGeometry x="1590.5" y="-6405" width="95" height="20" as="geometry"/>
                </mxCell>
                <mxCell id="ID3q5hRP-n-db3l4BBHP-66" value="a&lt;span style=&quot;font-size: 10px&quot;&gt;&lt;sub&gt;2&lt;/sub&gt;&lt;/span&gt;" style="align=center;strokeColor=#FFFF66;html=1;fillColor=none;strokeWidth=2;" parent="R9Chl-BOTtRfElairSPf-1" vertex="1">
                    <mxGeometry x="1189" y="-6814" width="80" height="20" as="geometry"/>
                </mxCell>
                <mxCell id="ID3q5hRP-n-db3l4BBHP-67" value=".&lt;br style=&quot;font-size: 10px;&quot;&gt;.&lt;br style=&quot;font-size: 10px;&quot;&gt;." style="align=center;strokeColor=#FFFF66;html=1;fillColor=none;strokeWidth=2;fontSize=10;spacing=0;horizontal=1;spacingTop=-4;" parent="R9Chl-BOTtRfElairSPf-1" vertex="1">
                    <mxGeometry x="1189" y="-6754" width="80" height="40" as="geometry"/>
                </mxCell>
                <mxCell id="ID3q5hRP-n-db3l4BBHP-68" value="a&lt;sub&gt;4&lt;/sub&gt;" style="align=center;strokeColor=#FFFF66;html=1;fillColor=none;strokeWidth=2;" parent="R9Chl-BOTtRfElairSPf-1" vertex="1">
                    <mxGeometry x="1189" y="-6774" width="80" height="20" as="geometry"/>
                </mxCell>
                <mxCell id="ID3q5hRP-n-db3l4BBHP-69" value="2" style="align=center;strokeColor=none;html=1;fillColor=none;strokeWidth=2;" parent="R9Chl-BOTtRfElairSPf-1" vertex="1">
                    <mxGeometry x="1511" y="-6505" width="80" height="20" as="geometry"/>
                </mxCell>
                <mxCell id="ID3q5hRP-n-db3l4BBHP-70" value="地址信息" style="align=center;strokeColor=#FFFF66;html=1;fillColor=none;strokeWidth=2;" parent="R9Chl-BOTtRfElairSPf-1" vertex="1">
                    <mxGeometry x="1685.5" y="-6565" width="80" height="20" as="geometry"/>
                </mxCell>
                <mxCell id="ID3q5hRP-n-db3l4BBHP-71" value="" style="align=center;strokeColor=#FFFF66;html=1;fillColor=none;strokeWidth=2;" parent="R9Chl-BOTtRfElairSPf-1" vertex="1">
                    <mxGeometry x="1685.5" y="-6545" width="80" height="20" as="geometry"/>
                </mxCell>
                <mxCell id="ID3q5hRP-n-db3l4BBHP-72" value="" style="align=center;strokeColor=#FFFF66;html=1;fillColor=none;strokeWidth=2;" parent="R9Chl-BOTtRfElairSPf-1" vertex="1">
                    <mxGeometry x="1685.5" y="-6525" width="80" height="20" as="geometry"/>
                </mxCell>
                <mxCell id="ID3q5hRP-n-db3l4BBHP-73" value="" style="align=center;strokeColor=#FFFF66;html=1;fillColor=none;strokeWidth=2;" parent="R9Chl-BOTtRfElairSPf-1" vertex="1">
                    <mxGeometry x="1685.5" y="-6505" width="80" height="20" as="geometry"/>
                </mxCell>
                <mxCell id="ID3q5hRP-n-db3l4BBHP-74" value="" style="align=center;strokeColor=#FFFF66;html=1;fillColor=none;strokeWidth=2;" parent="R9Chl-BOTtRfElairSPf-1" vertex="1">
                    <mxGeometry x="1685.5" y="-6485" width="80" height="20" as="geometry"/>
                </mxCell>
                <mxCell id="ID3q5hRP-n-db3l4BBHP-75" value="" style="align=center;strokeColor=#FFFF66;html=1;fillColor=none;strokeWidth=2;" parent="R9Chl-BOTtRfElairSPf-1" vertex="1">
                    <mxGeometry x="1685.5" y="-6465" width="80" height="20" as="geometry"/>
                </mxCell>
                <mxCell id="ID3q5hRP-n-db3l4BBHP-76" value="&lt;font style=&quot;font-size: 24px&quot;&gt;......&lt;/font&gt;" style="align=center;strokeColor=#FFFF66;html=1;fillColor=none;strokeWidth=2;fontSize=10;spacing=0;horizontal=1;spacingTop=-12;" parent="R9Chl-BOTtRfElairSPf-1" vertex="1">
                    <mxGeometry x="1685.5" y="-6445" width="80" height="40" as="geometry"/>
                </mxCell>
                <mxCell id="ID3q5hRP-n-db3l4BBHP-77" value="" style="align=center;strokeColor=#FFFF66;html=1;fillColor=none;strokeWidth=2;" parent="R9Chl-BOTtRfElairSPf-1" vertex="1">
                    <mxGeometry x="1685.5" y="-6405" width="80" height="20" as="geometry"/>
                </mxCell>
                <mxCell id="ID3q5hRP-n-db3l4BBHP-78" value="元素存储" style="align=center;strokeColor=#FFFF66;html=1;fillColor=none;strokeWidth=1;" parent="R9Chl-BOTtRfElairSPf-1" vertex="1">
                    <mxGeometry x="1812" y="-6562" width="80" height="17" as="geometry"/>
                </mxCell>
                <mxCell id="ID3q5hRP-n-db3l4BBHP-79" value="a&lt;sub&gt;0&lt;/sub&gt;" style="align=center;strokeColor=#FFFF66;html=1;fillColor=none;strokeWidth=1;" parent="R9Chl-BOTtRfElairSPf-1" vertex="1">
                    <mxGeometry x="1812" y="-6542" width="80" height="17" as="geometry"/>
                </mxCell>
                <mxCell id="ID3q5hRP-n-db3l4BBHP-80" value="a&lt;sub&gt;1&lt;/sub&gt;" style="align=center;strokeColor=#FFFF66;html=1;fillColor=none;strokeWidth=1;" parent="R9Chl-BOTtRfElairSPf-1" vertex="1">
                    <mxGeometry x="1812" y="-6522" width="80" height="17" as="geometry"/>
                </mxCell>
                <mxCell id="ID3q5hRP-n-db3l4BBHP-81" value="a&lt;span style=&quot;font-size: 10px&quot;&gt;&lt;sub&gt;2&lt;/sub&gt;&lt;/span&gt;" style="align=center;strokeColor=#FFFF66;html=1;fillColor=none;strokeWidth=1;" parent="R9Chl-BOTtRfElairSPf-1" vertex="1">
                    <mxGeometry x="1812" y="-6502" width="80" height="17" as="geometry"/>
                </mxCell>
                <mxCell id="ID3q5hRP-n-db3l4BBHP-82" value="a&lt;sub&gt;3&lt;/sub&gt;" style="align=center;strokeColor=#FFFF66;html=1;fillColor=none;strokeWidth=1;" parent="R9Chl-BOTtRfElairSPf-1" vertex="1">
                    <mxGeometry x="1812" y="-6482" width="80" height="17" as="geometry"/>
                </mxCell>
                <mxCell id="ID3q5hRP-n-db3l4BBHP-83" value="a&lt;sub&gt;4&lt;/sub&gt;" style="align=center;strokeColor=#FFFF66;html=1;fillColor=none;strokeWidth=1;" parent="R9Chl-BOTtRfElairSPf-1" vertex="1">
                    <mxGeometry x="1812" y="-6462" width="80" height="17" as="geometry"/>
                </mxCell>
                <mxCell id="ID3q5hRP-n-db3l4BBHP-84" value="a&lt;sub&gt;n-1&lt;/sub&gt;" style="align=center;strokeColor=#FFFF66;html=1;fillColor=none;strokeWidth=1;" parent="R9Chl-BOTtRfElairSPf-1" vertex="1">
                    <mxGeometry x="1812" y="-6402" width="80" height="17" as="geometry"/>
                </mxCell>
                <mxCell id="ID3q5hRP-n-db3l4BBHP-85" value="a&lt;span style=&quot;font-size: 10px&quot;&gt;&lt;sub&gt;2&lt;/sub&gt;&lt;/span&gt;" style="align=center;strokeColor=#FFFF66;html=1;fillColor=none;strokeWidth=1;" parent="R9Chl-BOTtRfElairSPf-1" vertex="1">
                    <mxGeometry x="1812" y="-6502" width="80" height="17" as="geometry"/>
                </mxCell>
                <mxCell id="ID3q5hRP-n-db3l4BBHP-86" value="a&lt;sub&gt;4&lt;/sub&gt;" style="align=center;strokeColor=#FFFF66;html=1;fillColor=none;strokeWidth=1;" parent="R9Chl-BOTtRfElairSPf-1" vertex="1">
                    <mxGeometry x="1812" y="-6462" width="80" height="17" as="geometry"/>
                </mxCell>
                <mxCell id="ID3q5hRP-n-db3l4BBHP-87" value="" style="endArrow=open;html=1;strokeColor=#FFFF66;fontSize=10;startArrow=oval;startFill=1;endFill=0;" parent="R9Chl-BOTtRfElairSPf-1" edge="1">
                    <mxGeometry width="50" height="50" relative="1" as="geometry">
                        <mxPoint x="1727" y="-6535.29" as="sourcePoint"/>
                        <mxPoint x="1810" y="-6535.29" as="targetPoint"/>
                    </mxGeometry>
                </mxCell>
                <mxCell id="ID3q5hRP-n-db3l4BBHP-88" value="" style="endArrow=open;html=1;strokeColor=#FFFF66;fontSize=10;startArrow=oval;startFill=1;endFill=0;" parent="R9Chl-BOTtRfElairSPf-1" edge="1">
                    <mxGeometry width="50" height="50" relative="1" as="geometry">
                        <mxPoint x="1727" y="-6513.669999999999" as="sourcePoint"/>
                        <mxPoint x="1810" y="-6513.669999999999" as="targetPoint"/>
                    </mxGeometry>
                </mxCell>
                <mxCell id="ID3q5hRP-n-db3l4BBHP-89" value="" style="endArrow=open;html=1;strokeColor=#FFFF66;fontSize=10;startArrow=oval;startFill=1;endFill=0;" parent="R9Chl-BOTtRfElairSPf-1" edge="1">
                    <mxGeometry width="50" height="50" relative="1" as="geometry">
                        <mxPoint x="1727" y="-6493.67" as="sourcePoint"/>
                        <mxPoint x="1810" y="-6493.67" as="targetPoint"/>
                    </mxGeometry>
                </mxCell>
                <mxCell id="ID3q5hRP-n-db3l4BBHP-90" value="" style="endArrow=open;html=1;strokeColor=#FFFF66;fontSize=10;startArrow=oval;startFill=1;endFill=0;" parent="R9Chl-BOTtRfElairSPf-1" edge="1">
                    <mxGeometry width="50" height="50" relative="1" as="geometry">
                        <mxPoint x="1727" y="-6472" as="sourcePoint"/>
                        <mxPoint x="1810" y="-6472" as="targetPoint"/>
                    </mxGeometry>
                </mxCell>
                <mxCell id="ID3q5hRP-n-db3l4BBHP-91" value="" style="endArrow=open;html=1;strokeColor=#FFFF66;fontSize=10;startArrow=oval;startFill=1;endFill=0;" parent="R9Chl-BOTtRfElairSPf-1" edge="1">
                    <mxGeometry width="50" height="50" relative="1" as="geometry">
                        <mxPoint x="1727" y="-6455.169999999999" as="sourcePoint"/>
                        <mxPoint x="1810" y="-6455.169999999999" as="targetPoint"/>
                    </mxGeometry>
                </mxCell>
                <mxCell id="ID3q5hRP-n-db3l4BBHP-92" value="" style="endArrow=open;html=1;strokeColor=#FFFF66;fontSize=10;startArrow=oval;startFill=1;endFill=0;" parent="R9Chl-BOTtRfElairSPf-1" edge="1">
                    <mxGeometry width="50" height="50" relative="1" as="geometry">
                        <mxPoint x="1725.999999999999" y="-6393.67" as="sourcePoint"/>
                        <mxPoint x="1809" y="-6393.67" as="targetPoint"/>
                    </mxGeometry>
                </mxCell>
                <mxCell id="ID3q5hRP-n-db3l4BBHP-93" value="基本顺序表 &lt;br&gt;&amp;nbsp; &amp;nbsp; &amp;nbsp; &amp;nbsp; &amp;nbsp;元素数据类型要一致" style="align=left;strokeColor=none;html=1;fillColor=none;strokeWidth=2;" parent="R9Chl-BOTtRfElairSPf-1" vertex="1">
                    <mxGeometry x="1598" y="-7073" width="179.5" height="20" as="geometry"/>
                </mxCell>
                <mxCell id="ID3q5hRP-n-db3l4BBHP-94" value="&lt;span style=&quot;text-align: center&quot;&gt;元素外置顺序表&lt;/span&gt;&amp;nbsp;&lt;br&gt;&amp;nbsp; &amp;nbsp; &amp;nbsp; &amp;nbsp; &amp;nbsp;元素数据类型可以不一致" style="align=left;strokeColor=none;html=1;fillColor=none;strokeWidth=2;" parent="R9Chl-BOTtRfElairSPf-1" vertex="1">
                    <mxGeometry x="1632.5" y="-6597" width="179.5" height="20" as="geometry"/>
                </mxCell>
                <mxCell id="ID3q5hRP-n-db3l4BBHP-95" value="&lt;font style=&quot;font-size: 24px&quot;&gt;......&lt;/font&gt;" style="align=center;strokeColor=none;html=1;fillColor=none;strokeWidth=2;fontSize=10;spacing=0;horizontal=1;spacingTop=-12;" parent="R9Chl-BOTtRfElairSPf-1" vertex="1">
                    <mxGeometry x="1594" y="-6445" width="80" height="40" as="geometry"/>
                </mxCell>
                <mxCell id="ID3q5hRP-n-db3l4BBHP-96" value="&lt;font style=&quot;font-size: 24px&quot;&gt;......&lt;/font&gt;" style="align=center;strokeColor=none;html=1;fillColor=none;strokeWidth=2;fontSize=10;spacing=0;horizontal=1;spacingTop=-12;" parent="R9Chl-BOTtRfElairSPf-1" vertex="1">
                    <mxGeometry x="1511" y="-6445" width="80" height="40" as="geometry"/>
                </mxCell>
                <mxCell id="ID3q5hRP-n-db3l4BBHP-97" value="&lt;font style=&quot;font-size: 24px&quot;&gt;......&lt;/font&gt;" style="align=center;strokeColor=#FFFF66;html=1;fillColor=none;strokeWidth=2;fontSize=10;spacing=0;horizontal=1;spacingTop=-12;" parent="R9Chl-BOTtRfElairSPf-1" vertex="1">
                    <mxGeometry x="1812" y="-6442" width="80" height="40" as="geometry"/>
                </mxCell>
                <mxCell id="ID3q5hRP-n-db3l4BBHP-98" value="&lt;font style=&quot;font-size: 24px&quot;&gt;......&lt;/font&gt;" style="align=center;strokeColor=none;html=1;fillColor=none;strokeWidth=2;fontSize=10;spacing=0;horizontal=1;spacingTop=-12;" parent="R9Chl-BOTtRfElairSPf-1" vertex="1">
                    <mxGeometry x="1514" y="-6926" width="80" height="40" as="geometry"/>
                </mxCell>
                <mxCell id="ID3q5hRP-n-db3l4BBHP-99" value="&lt;font style=&quot;font-size: 24px&quot;&gt;......&lt;/font&gt;" style="align=center;strokeColor=#FFFF66;html=1;fillColor=none;strokeWidth=2;fontSize=10;spacing=0;horizontal=1;spacingTop=-12;" parent="R9Chl-BOTtRfElairSPf-1" vertex="1">
                    <mxGeometry x="1594" y="-6924" width="80" height="40" as="geometry"/>
                </mxCell>
                <mxCell id="ID3q5hRP-n-db3l4BBHP-100" value="&lt;font style=&quot;font-size: 24px&quot;&gt;......&lt;/font&gt;" style="align=center;strokeColor=none;html=1;fillColor=none;strokeWidth=2;fontSize=10;spacing=0;horizontal=1;spacingTop=-12;" parent="R9Chl-BOTtRfElairSPf-1" vertex="1">
                    <mxGeometry x="1678" y="-6926" width="80" height="40" as="geometry"/>
                </mxCell>
                <mxCell id="ID3q5hRP-n-db3l4BBHP-101" value="8" style="align=center;strokeColor=#FFFF66;html=1;fillColor=none;strokeWidth=2;" parent="R9Chl-BOTtRfElairSPf-1" vertex="1">
                    <mxGeometry x="1518.5" y="-6289" width="80" height="20" as="geometry"/>
                </mxCell>
                <mxCell id="ID3q5hRP-n-db3l4BBHP-102" value="4" style="align=center;strokeColor=#FFFF66;html=1;fillColor=none;strokeWidth=2;" parent="R9Chl-BOTtRfElairSPf-1" vertex="1">
                    <mxGeometry x="1598.5" y="-6289" width="80" height="20" as="geometry"/>
                </mxCell>
                <mxCell id="ID3q5hRP-n-db3l4BBHP-103" value="" style="align=center;strokeColor=#FFFF66;html=1;fillColor=none;strokeWidth=2;" parent="R9Chl-BOTtRfElairSPf-1" vertex="1">
                    <mxGeometry x="1678.5" y="-6289" width="120.5" height="20" as="geometry"/>
                </mxCell>
                <mxCell id="ID3q5hRP-n-db3l4BBHP-104" value="容量(max)" style="align=center;strokeColor=none;html=1;fillColor=none;strokeWidth=2;" parent="R9Chl-BOTtRfElairSPf-1" vertex="1">
                    <mxGeometry x="1518.5" y="-6309" width="80" height="20" as="geometry"/>
                </mxCell>
                <mxCell id="ID3q5hRP-n-db3l4BBHP-105" value="数量(num)" style="align=center;strokeColor=none;html=1;fillColor=none;strokeWidth=2;" parent="R9Chl-BOTtRfElairSPf-1" vertex="1">
                    <mxGeometry x="1598.5" y="-6309" width="80" height="20" as="geometry"/>
                </mxCell>
                <mxCell id="ID3q5hRP-n-db3l4BBHP-106" value="元素存储区" style="align=center;strokeColor=none;html=1;fillColor=none;strokeWidth=2;" parent="R9Chl-BOTtRfElairSPf-1" vertex="1">
                    <mxGeometry x="1678.5" y="-6309" width="120.5" height="20" as="geometry"/>
                </mxCell>
                <mxCell id="ID3q5hRP-n-db3l4BBHP-107" value="一体式结构" style="align=center;strokeColor=none;html=1;fillColor=none;strokeWidth=2;" parent="R9Chl-BOTtRfElairSPf-1" vertex="1">
                    <mxGeometry x="1618" y="-6257" width="80" height="20" as="geometry"/>
                </mxCell>
                <mxCell id="ID3q5hRP-n-db3l4BBHP-108" value="8" style="align=center;strokeColor=#FFFF66;html=1;fillColor=none;strokeWidth=2;" parent="R9Chl-BOTtRfElairSPf-1" vertex="1">
                    <mxGeometry x="1527" y="-6185" width="80" height="20" as="geometry"/>
                </mxCell>
                <mxCell id="ID3q5hRP-n-db3l4BBHP-109" value="4" style="align=center;strokeColor=#FFFF66;html=1;fillColor=none;strokeWidth=2;" parent="R9Chl-BOTtRfElairSPf-1" vertex="1">
                    <mxGeometry x="1527" y="-6165" width="80" height="20" as="geometry"/>
                </mxCell>
                <mxCell id="ID3q5hRP-n-db3l4BBHP-110" value="" style="align=center;strokeColor=#FFFF66;html=1;fillColor=none;strokeWidth=2;" parent="R9Chl-BOTtRfElairSPf-1" vertex="1">
                    <mxGeometry x="1652.5" y="-6145" width="120.5" height="20" as="geometry"/>
                </mxCell>
                <mxCell id="ID3q5hRP-n-db3l4BBHP-111" value="容量(max)" style="align=center;strokeColor=none;html=1;fillColor=none;strokeWidth=2;" parent="R9Chl-BOTtRfElairSPf-1" vertex="1">
                    <mxGeometry x="1447" y="-6185" width="80" height="20" as="geometry"/>
                </mxCell>
                <mxCell id="ID3q5hRP-n-db3l4BBHP-112" value="数量(num)" style="align=center;strokeColor=none;html=1;fillColor=none;strokeWidth=2;" parent="R9Chl-BOTtRfElairSPf-1" vertex="1">
                    <mxGeometry x="1447" y="-6165" width="80" height="20" as="geometry"/>
                </mxCell>
                <mxCell id="ID3q5hRP-n-db3l4BBHP-113" value="元素存储区" style="align=center;strokeColor=none;html=1;fillColor=none;strokeWidth=2;" parent="R9Chl-BOTtRfElairSPf-1" vertex="1">
                    <mxGeometry x="1651" y="-6168" width="120.5" height="20" as="geometry"/>
                </mxCell>
                <mxCell id="ID3q5hRP-n-db3l4BBHP-114" value="分离式结构" style="align=center;strokeColor=none;html=1;fillColor=none;strokeWidth=2;" parent="R9Chl-BOTtRfElairSPf-1" vertex="1">
                    <mxGeometry x="1605.5" y="-6103" width="80" height="20" as="geometry"/>
                </mxCell>
                <mxCell id="ID3q5hRP-n-db3l4BBHP-115" value="" style="align=center;strokeColor=#FFFF66;html=1;fillColor=none;strokeWidth=2;" parent="R9Chl-BOTtRfElairSPf-1" vertex="1">
                    <mxGeometry x="1527" y="-6145" width="80" height="20" as="geometry"/>
                </mxCell>
                <mxCell id="ID3q5hRP-n-db3l4BBHP-116" value="地址信息" style="align=center;strokeColor=none;html=1;fillColor=none;strokeWidth=2;" parent="R9Chl-BOTtRfElairSPf-1" vertex="1">
                    <mxGeometry x="1447" y="-6145" width="80" height="20" as="geometry"/>
                </mxCell>
                <mxCell id="ID3q5hRP-n-db3l4BBHP-117" value="" style="endArrow=open;html=1;strokeColor=#FFFF66;fontSize=10;startArrow=oval;startFill=1;endFill=0;" parent="R9Chl-BOTtRfElairSPf-1" edge="1">
                    <mxGeometry width="50" height="50" relative="1" as="geometry">
                        <mxPoint x="1557" y="-6135.29" as="sourcePoint"/>
                        <mxPoint x="1671" y="-6135" as="targetPoint"/>
                    </mxGeometry>
                </mxCell>
                <mxCell id="ID3q5hRP-n-db3l4BBHP-118" value="8" style="align=center;strokeColor=#FFFF66;html=1;fillColor=none;strokeWidth=2;" parent="R9Chl-BOTtRfElairSPf-1" vertex="1">
                    <mxGeometry x="1454" y="-6018" width="40" height="20" as="geometry"/>
                </mxCell>
                <mxCell id="ID3q5hRP-n-db3l4BBHP-119" value="4" style="align=center;strokeColor=#FFFF66;html=1;fillColor=none;strokeWidth=2;" parent="R9Chl-BOTtRfElairSPf-1" vertex="1">
                    <mxGeometry x="1454" y="-5998" width="40" height="20" as="geometry"/>
                </mxCell>
                <mxCell id="ID3q5hRP-n-db3l4BBHP-120" value="1382" style="align=center;strokeColor=#FFFF66;html=1;fillColor=none;strokeWidth=2;" parent="R9Chl-BOTtRfElairSPf-1" vertex="1">
                    <mxGeometry x="1454" y="-5957" width="40" height="20" as="geometry"/>
                </mxCell>
                <mxCell id="ID3q5hRP-n-db3l4BBHP-121" value="693" style="align=center;strokeColor=#FFFF66;html=1;fillColor=none;strokeWidth=2;" parent="R9Chl-BOTtRfElairSPf-1" vertex="1">
                    <mxGeometry x="1454" y="-5937" width="40" height="20" as="geometry"/>
                </mxCell>
                <mxCell id="ID3q5hRP-n-db3l4BBHP-122" value="2529" style="align=center;strokeColor=#FFFF66;html=1;fillColor=none;strokeWidth=2;" parent="R9Chl-BOTtRfElairSPf-1" vertex="1">
                    <mxGeometry x="1454" y="-5917" width="40" height="20" as="geometry"/>
                </mxCell>
                <mxCell id="ID3q5hRP-n-db3l4BBHP-123" value="" style="align=center;strokeColor=#FFFF66;html=1;fillColor=none;strokeWidth=2;" parent="R9Chl-BOTtRfElairSPf-1" vertex="1">
                    <mxGeometry x="1454" y="-5877" width="40" height="20" as="geometry"/>
                </mxCell>
                <mxCell id="ID3q5hRP-n-db3l4BBHP-125" value="154" style="align=center;strokeColor=#FFFF66;html=1;fillColor=none;strokeWidth=2;" parent="R9Chl-BOTtRfElairSPf-1" vertex="1">
                    <mxGeometry x="1454" y="-5897" width="40" height="20" as="geometry"/>
                </mxCell>
                <mxCell id="ID3q5hRP-n-db3l4BBHP-126" value="地址信息" style="align=center;strokeColor=none;html=1;fillColor=none;strokeWidth=2;" parent="R9Chl-BOTtRfElairSPf-1" vertex="1">
                    <mxGeometry x="1447" y="-6145" width="80" height="20" as="geometry"/>
                </mxCell>
                <mxCell id="ID3q5hRP-n-db3l4BBHP-127" value="数量(num)" style="align=center;strokeColor=none;html=1;fillColor=none;strokeWidth=2;" parent="R9Chl-BOTtRfElairSPf-1" vertex="1">
                    <mxGeometry x="1447" y="-6165" width="80" height="20" as="geometry"/>
                </mxCell>
                <mxCell id="ID3q5hRP-n-db3l4BBHP-128" value="3" style="align=center;strokeColor=none;html=1;fillColor=none;strokeWidth=2;" parent="R9Chl-BOTtRfElairSPf-1" vertex="1">
                    <mxGeometry x="1511" y="-6485" width="80" height="20" as="geometry"/>
                </mxCell>
                <mxCell id="ID3q5hRP-n-db3l4BBHP-130" value="0" style="align=right;strokeColor=none;html=1;fillColor=none;strokeWidth=2;spacingLeft=3;spacing=8;" parent="R9Chl-BOTtRfElairSPf-1" vertex="1">
                    <mxGeometry x="1374" y="-5955" width="80" height="20" as="geometry"/>
                </mxCell>
                <mxCell id="ID3q5hRP-n-db3l4BBHP-131" value="1" style="align=right;strokeColor=none;html=1;fillColor=none;strokeWidth=2;spacingLeft=3;spacing=8;" parent="R9Chl-BOTtRfElairSPf-1" vertex="1">
                    <mxGeometry x="1374" y="-5935" width="80" height="20" as="geometry"/>
                </mxCell>
                <mxCell id="ID3q5hRP-n-db3l4BBHP-132" value="4" style="align=right;strokeColor=none;html=1;fillColor=none;strokeWidth=2;spacingLeft=3;spacing=8;" parent="R9Chl-BOTtRfElairSPf-1" vertex="1">
                    <mxGeometry x="1374" y="-5875" width="80" height="20" as="geometry"/>
                </mxCell>
                <mxCell id="ID3q5hRP-n-db3l4BBHP-133" value="2" style="align=right;strokeColor=none;html=1;fillColor=none;strokeWidth=2;spacingLeft=3;spacing=8;" parent="R9Chl-BOTtRfElairSPf-1" vertex="1">
                    <mxGeometry x="1374" y="-5915" width="80" height="20" as="geometry"/>
                </mxCell>
                <mxCell id="ID3q5hRP-n-db3l4BBHP-134" value="3" style="align=right;strokeColor=none;html=1;fillColor=none;strokeWidth=2;spacingLeft=3;spacing=8;" parent="R9Chl-BOTtRfElairSPf-1" vertex="1">
                    <mxGeometry x="1374" y="-5895" width="80" height="20" as="geometry"/>
                </mxCell>
                <mxCell id="ID3q5hRP-n-db3l4BBHP-135" value="" style="align=center;strokeColor=#FFFF66;html=1;fillColor=none;strokeWidth=2;" parent="R9Chl-BOTtRfElairSPf-1" vertex="1">
                    <mxGeometry x="1454" y="-5857" width="40" height="20" as="geometry"/>
                </mxCell>
                <mxCell id="ID3q5hRP-n-db3l4BBHP-136" value="" style="align=center;strokeColor=#FFFF66;html=1;fillColor=none;strokeWidth=2;" parent="R9Chl-BOTtRfElairSPf-1" vertex="1">
                    <mxGeometry x="1454" y="-5817" width="40" height="20" as="geometry"/>
                </mxCell>
                <mxCell id="ID3q5hRP-n-db3l4BBHP-137" value="" style="align=center;strokeColor=#FFFF66;html=1;fillColor=none;strokeWidth=2;" parent="R9Chl-BOTtRfElairSPf-1" vertex="1">
                    <mxGeometry x="1454" y="-5837" width="40" height="20" as="geometry"/>
                </mxCell>
                <mxCell id="ID3q5hRP-n-db3l4BBHP-138" value="7" style="align=right;strokeColor=none;html=1;fillColor=none;strokeWidth=2;spacingLeft=3;spacing=8;" parent="R9Chl-BOTtRfElairSPf-1" vertex="1">
                    <mxGeometry x="1374" y="-5817" width="80" height="20" as="geometry"/>
                </mxCell>
                <mxCell id="ID3q5hRP-n-db3l4BBHP-139" value="5" style="align=right;strokeColor=none;html=1;fillColor=none;strokeWidth=2;spacing=8;" parent="R9Chl-BOTtRfElairSPf-1" vertex="1">
                    <mxGeometry x="1374" y="-5857" width="80" height="20" as="geometry"/>
                </mxCell>
                <mxCell id="ID3q5hRP-n-db3l4BBHP-140" value="6" style="align=right;strokeColor=none;html=1;fillColor=none;strokeWidth=2;spacingLeft=3;spacing=8;" parent="R9Chl-BOTtRfElairSPf-1" vertex="1">
                    <mxGeometry x="1374" y="-5837" width="80" height="20" as="geometry"/>
                </mxCell>
                <mxCell id="ID3q5hRP-n-db3l4BBHP-142" value="8" style="align=center;strokeColor=#FFFF66;html=1;fillColor=none;strokeWidth=2;" parent="R9Chl-BOTtRfElairSPf-1" vertex="1">
                    <mxGeometry x="1537" y="-6018" width="40" height="20" as="geometry"/>
                </mxCell>
                <mxCell id="ID3q5hRP-n-db3l4BBHP-143" value="5" style="align=center;strokeColor=#FFFF66;html=1;fillColor=none;strokeWidth=2;" parent="R9Chl-BOTtRfElairSPf-1" vertex="1">
                    <mxGeometry x="1537" y="-5998" width="40" height="20" as="geometry"/>
                </mxCell>
                <mxCell id="ID3q5hRP-n-db3l4BBHP-144" value="1382" style="align=center;strokeColor=#FFFF66;html=1;fillColor=none;strokeWidth=2;" parent="R9Chl-BOTtRfElairSPf-1" vertex="1">
                    <mxGeometry x="1538.5" y="-5955" width="40" height="20" as="geometry"/>
                </mxCell>
                <mxCell id="ID3q5hRP-n-db3l4BBHP-145" value="693" style="align=center;strokeColor=#FFFF66;html=1;fillColor=none;strokeWidth=2;" parent="R9Chl-BOTtRfElairSPf-1" vertex="1">
                    <mxGeometry x="1538.5" y="-5935" width="40" height="20" as="geometry"/>
                </mxCell>
                <mxCell id="ID3q5hRP-n-db3l4BBHP-146" value="2529" style="align=center;strokeColor=#FFFF66;html=1;fillColor=none;strokeWidth=2;" parent="R9Chl-BOTtRfElairSPf-1" vertex="1">
                    <mxGeometry x="1538.5" y="-5915" width="40" height="20" as="geometry"/>
                </mxCell>
                <mxCell id="ID3q5hRP-n-db3l4BBHP-147" value="111" style="align=center;strokeColor=#FFFF66;html=1;fillColor=none;strokeWidth=2;fontColor=#33FF33;" parent="R9Chl-BOTtRfElairSPf-1" vertex="1">
                    <mxGeometry x="1538.5" y="-5875" width="40" height="20" as="geometry"/>
                </mxCell>
                <mxCell id="ID3q5hRP-n-db3l4BBHP-148" value="154" style="align=center;strokeColor=#FFFF66;html=1;fillColor=none;strokeWidth=2;" parent="R9Chl-BOTtRfElairSPf-1" vertex="1">
                    <mxGeometry x="1538.5" y="-5895" width="40" height="20" as="geometry"/>
                </mxCell>
                <mxCell id="ID3q5hRP-n-db3l4BBHP-149" value="" style="align=center;strokeColor=#FFFF66;html=1;fillColor=none;strokeWidth=2;" parent="R9Chl-BOTtRfElairSPf-1" vertex="1">
                    <mxGeometry x="1538.5" y="-5855" width="40" height="20" as="geometry"/>
                </mxCell>
                <mxCell id="ID3q5hRP-n-db3l4BBHP-150" value="" style="align=center;strokeColor=#FFFF66;html=1;fillColor=none;strokeWidth=2;" parent="R9Chl-BOTtRfElairSPf-1" vertex="1">
                    <mxGeometry x="1538.5" y="-5815" width="40" height="20" as="geometry"/>
                </mxCell>
                <mxCell id="ID3q5hRP-n-db3l4BBHP-151" value="" style="align=center;strokeColor=#FFFF66;html=1;fillColor=none;strokeWidth=2;" parent="R9Chl-BOTtRfElairSPf-1" vertex="1">
                    <mxGeometry x="1538.5" y="-5835" width="40" height="20" as="geometry"/>
                </mxCell>
                <mxCell id="ID3q5hRP-n-db3l4BBHP-152" value="尾部添加" style="align=center;strokeColor=none;html=1;fillColor=none;strokeWidth=2;" parent="R9Chl-BOTtRfElairSPf-1" vertex="1">
                    <mxGeometry x="1518.5" y="-5783" width="80" height="20" as="geometry"/>
                </mxCell>
                <mxCell id="ID3q5hRP-n-db3l4BBHP-153" value="8" style="align=center;strokeColor=#FFFF66;html=1;fillColor=none;strokeWidth=2;" parent="R9Chl-BOTtRfElairSPf-1" vertex="1">
                    <mxGeometry x="1624" y="-6018" width="40" height="20" as="geometry"/>
                </mxCell>
                <mxCell id="ID3q5hRP-n-db3l4BBHP-154" value="5" style="align=center;strokeColor=#FFFF66;html=1;fillColor=none;strokeWidth=2;" parent="R9Chl-BOTtRfElairSPf-1" vertex="1">
                    <mxGeometry x="1624" y="-5998" width="40" height="20" as="geometry"/>
                </mxCell>
                <mxCell id="ID3q5hRP-n-db3l4BBHP-155" value="1382" style="align=center;strokeColor=#FFFF66;html=1;fillColor=none;strokeWidth=2;" parent="R9Chl-BOTtRfElairSPf-1" vertex="1">
                    <mxGeometry x="1625.5" y="-5955" width="40" height="20" as="geometry"/>
                </mxCell>
                <mxCell id="ID3q5hRP-n-db3l4BBHP-156" value="693" style="align=center;strokeColor=#FFFF66;html=1;fillColor=none;strokeWidth=2;" parent="R9Chl-BOTtRfElairSPf-1" vertex="1">
                    <mxGeometry x="1625.5" y="-5915" width="40" height="20" as="geometry"/>
                </mxCell>
                <mxCell id="ID3q5hRP-n-db3l4BBHP-157" value="2529" style="align=center;strokeColor=#FFFF66;html=1;fillColor=none;strokeWidth=2;" parent="R9Chl-BOTtRfElairSPf-1" vertex="1">
                    <mxGeometry x="1625.5" y="-5895" width="40" height="20" as="geometry"/>
                </mxCell>
                <mxCell id="ID3q5hRP-n-db3l4BBHP-158" value="111" style="align=center;strokeColor=#FFFF66;html=1;fillColor=none;strokeWidth=2;fontColor=#33FF33;" parent="R9Chl-BOTtRfElairSPf-1" vertex="1">
                    <mxGeometry x="1625.5" y="-5935" width="40" height="20" as="geometry"/>
                </mxCell>
                <mxCell id="ID3q5hRP-n-db3l4BBHP-159" value="154" style="align=center;strokeColor=#FFFF66;html=1;fillColor=none;strokeWidth=2;" parent="R9Chl-BOTtRfElairSPf-1" vertex="1">
                    <mxGeometry x="1625.5" y="-5875" width="40" height="20" as="geometry"/>
                </mxCell>
                <mxCell id="ID3q5hRP-n-db3l4BBHP-160" value="" style="align=center;strokeColor=#FFFF66;html=1;fillColor=none;strokeWidth=2;" parent="R9Chl-BOTtRfElairSPf-1" vertex="1">
                    <mxGeometry x="1625.5" y="-5855" width="40" height="20" as="geometry"/>
                </mxCell>
                <mxCell id="ID3q5hRP-n-db3l4BBHP-161" value="" style="align=center;strokeColor=#FFFF66;html=1;fillColor=none;strokeWidth=2;" parent="R9Chl-BOTtRfElairSPf-1" vertex="1">
                    <mxGeometry x="1625.5" y="-5815" width="40" height="20" as="geometry"/>
                </mxCell>
                <mxCell id="ID3q5hRP-n-db3l4BBHP-162" value="" style="align=center;strokeColor=#FFFF66;html=1;fillColor=none;strokeWidth=2;" parent="R9Chl-BOTtRfElairSPf-1" vertex="1">
                    <mxGeometry x="1625.5" y="-5835" width="40" height="20" as="geometry"/>
                </mxCell>
                <mxCell id="ID3q5hRP-n-db3l4BBHP-163" value="插入(非保序)" style="align=center;strokeColor=none;html=1;fillColor=none;strokeWidth=2;" parent="R9Chl-BOTtRfElairSPf-1" vertex="1">
                    <mxGeometry x="1711" y="-5783" width="80" height="20" as="geometry"/>
                </mxCell>
                <mxCell id="ID3q5hRP-n-db3l4BBHP-164" value="" style="curved=1;endArrow=classic;html=1;strokeColor=#FFFF66;fontSize=10;fontColor=#33FF33;" parent="R9Chl-BOTtRfElairSPf-1" edge="1">
                    <mxGeometry width="50" height="50" relative="1" as="geometry">
                        <mxPoint x="1669" y="-5925" as="sourcePoint"/>
                        <mxPoint x="1669" y="-5904" as="targetPoint"/>
                        <Array as="points">
                            <mxPoint x="1685" y="-5924"/>
                            <mxPoint x="1685" y="-5909.5"/>
                        </Array>
                    </mxGeometry>
                </mxCell>
                <mxCell id="ID3q5hRP-n-db3l4BBHP-165" value="693" style="align=center;strokeColor=none;html=1;fillColor=none;strokeWidth=2;" parent="R9Chl-BOTtRfElairSPf-1" vertex="1">
                    <mxGeometry x="1678" y="-5926" width="40" height="20" as="geometry"/>
                </mxCell>
                <mxCell id="ID3q5hRP-n-db3l4BBHP-166" value="" style="curved=1;endArrow=classic;html=1;strokeColor=#FFFF66;fontSize=10;fontColor=#33FF33;" parent="R9Chl-BOTtRfElairSPf-1" edge="1">
                    <mxGeometry width="50" height="50" relative="1" as="geometry">
                        <mxPoint x="1669" y="-5902" as="sourcePoint"/>
                        <mxPoint x="1669" y="-5881" as="targetPoint"/>
                        <Array as="points">
                            <mxPoint x="1685" y="-5901"/>
                            <mxPoint x="1685" y="-5886.5"/>
                        </Array>
                    </mxGeometry>
                </mxCell>
                <mxCell id="ID3q5hRP-n-db3l4BBHP-167" value="2529" style="align=center;strokeColor=none;html=1;fillColor=none;strokeWidth=2;" parent="R9Chl-BOTtRfElairSPf-1" vertex="1">
                    <mxGeometry x="1678.5" y="-5903" width="40" height="20" as="geometry"/>
                </mxCell>
                <mxCell id="ID3q5hRP-n-db3l4BBHP-168" value="" style="curved=1;endArrow=classic;html=1;strokeColor=#FFFF66;fontSize=10;fontColor=#33FF33;" parent="R9Chl-BOTtRfElairSPf-1" edge="1">
                    <mxGeometry width="50" height="50" relative="1" as="geometry">
                        <mxPoint x="1669.5" y="-5903" as="sourcePoint"/>
                        <mxPoint x="1669.5" y="-5882" as="targetPoint"/>
                        <Array as="points">
                            <mxPoint x="1685.5" y="-5902"/>
                            <mxPoint x="1685.5" y="-5887.5"/>
                        </Array>
                    </mxGeometry>
                </mxCell>
                <mxCell id="ID3q5hRP-n-db3l4BBHP-169" value="154" style="align=center;strokeColor=none;html=1;fillColor=none;strokeWidth=2;" parent="R9Chl-BOTtRfElairSPf-1" vertex="1">
                    <mxGeometry x="1678" y="-5878" width="40" height="20" as="geometry"/>
                </mxCell>
                <mxCell id="ID3q5hRP-n-db3l4BBHP-170" value="" style="curved=1;endArrow=classic;html=1;strokeColor=#FFFF66;fontSize=10;fontColor=#33FF33;" parent="R9Chl-BOTtRfElairSPf-1" edge="1">
                    <mxGeometry width="50" height="50" relative="1" as="geometry">
                        <mxPoint x="1669" y="-5878" as="sourcePoint"/>
                        <mxPoint x="1669" y="-5857" as="targetPoint"/>
                        <Array as="points">
                            <mxPoint x="1685" y="-5877"/>
                            <mxPoint x="1685" y="-5862.5"/>
                        </Array>
                    </mxGeometry>
                </mxCell>
                <mxCell id="ID3q5hRP-n-db3l4BBHP-171" value="8" style="align=center;strokeColor=#FFFF66;html=1;fillColor=none;strokeWidth=2;" parent="R9Chl-BOTtRfElairSPf-1" vertex="1">
                    <mxGeometry x="1725" y="-6018" width="40" height="20" as="geometry"/>
                </mxCell>
                <mxCell id="ID3q5hRP-n-db3l4BBHP-172" value="5" style="align=center;strokeColor=#FFFF66;html=1;fillColor=none;strokeWidth=2;" parent="R9Chl-BOTtRfElairSPf-1" vertex="1">
                    <mxGeometry x="1725" y="-5998" width="40" height="20" as="geometry"/>
                </mxCell>
                <mxCell id="ID3q5hRP-n-db3l4BBHP-173" value="1382" style="align=center;strokeColor=#FFFF66;html=1;fillColor=none;strokeWidth=2;" parent="R9Chl-BOTtRfElairSPf-1" vertex="1">
                    <mxGeometry x="1726.5" y="-5955" width="40" height="20" as="geometry"/>
                </mxCell>
                <mxCell id="ID3q5hRP-n-db3l4BBHP-174" value="693" style="align=center;strokeColor=#FFFF66;html=1;fillColor=none;strokeWidth=2;" parent="R9Chl-BOTtRfElairSPf-1" vertex="1">
                    <mxGeometry x="1726.5" y="-5875" width="40" height="20" as="geometry"/>
                </mxCell>
                <mxCell id="ID3q5hRP-n-db3l4BBHP-175" value="2529" style="align=center;strokeColor=#FFFF66;html=1;fillColor=none;strokeWidth=2;" parent="R9Chl-BOTtRfElairSPf-1" vertex="1">
                    <mxGeometry x="1726.5" y="-5915" width="40" height="20" as="geometry"/>
                </mxCell>
                <mxCell id="ID3q5hRP-n-db3l4BBHP-176" value="111" style="align=center;strokeColor=#FFFF66;html=1;fillColor=none;strokeWidth=2;fontColor=#33FF33;" parent="R9Chl-BOTtRfElairSPf-1" vertex="1">
                    <mxGeometry x="1726.5" y="-5935" width="40" height="20" as="geometry"/>
                </mxCell>
                <mxCell id="ID3q5hRP-n-db3l4BBHP-177" value="154" style="align=center;strokeColor=#FFFF66;html=1;fillColor=none;strokeWidth=2;" parent="R9Chl-BOTtRfElairSPf-1" vertex="1">
                    <mxGeometry x="1726.5" y="-5895" width="40" height="20" as="geometry"/>
                </mxCell>
                <mxCell id="ID3q5hRP-n-db3l4BBHP-178" value="" style="align=center;strokeColor=#FFFF66;html=1;fillColor=none;strokeWidth=2;" parent="R9Chl-BOTtRfElairSPf-1" vertex="1">
                    <mxGeometry x="1726.5" y="-5855" width="40" height="20" as="geometry"/>
                </mxCell>
                <mxCell id="ID3q5hRP-n-db3l4BBHP-179" value="" style="align=center;strokeColor=#FFFF66;html=1;fillColor=none;strokeWidth=2;" parent="R9Chl-BOTtRfElairSPf-1" vertex="1">
                    <mxGeometry x="1726.5" y="-5815" width="40" height="20" as="geometry"/>
                </mxCell>
                <mxCell id="ID3q5hRP-n-db3l4BBHP-180" value="" style="align=center;strokeColor=#FFFF66;html=1;fillColor=none;strokeWidth=2;" parent="R9Chl-BOTtRfElairSPf-1" vertex="1">
                    <mxGeometry x="1726.5" y="-5835" width="40" height="20" as="geometry"/>
                </mxCell>
                <mxCell id="ID3q5hRP-n-db3l4BBHP-181" value="" style="curved=1;endArrow=classic;html=1;strokeColor=#FFFF66;fontSize=10;fontColor=#33FF33;" parent="R9Chl-BOTtRfElairSPf-1" edge="1">
                    <mxGeometry width="50" height="50" relative="1" as="geometry">
                        <mxPoint x="1770" y="-5925" as="sourcePoint"/>
                        <mxPoint x="1770" y="-5865" as="targetPoint"/>
                        <Array as="points">
                            <mxPoint x="1790" y="-5925"/>
                            <mxPoint x="1790" y="-5865"/>
                        </Array>
                    </mxGeometry>
                </mxCell>
                <mxCell id="ID3q5hRP-n-db3l4BBHP-182" value="693" style="align=center;strokeColor=none;html=1;fillColor=none;strokeWidth=2;" parent="R9Chl-BOTtRfElairSPf-1" vertex="1">
                    <mxGeometry x="1782" y="-5906" width="40" height="20" as="geometry"/>
                </mxCell>
                <mxCell id="ID3q5hRP-n-db3l4BBHP-188" value="插入(保序)" style="align=center;strokeColor=none;html=1;fillColor=none;strokeWidth=2;" parent="R9Chl-BOTtRfElairSPf-1" vertex="1">
                    <mxGeometry x="1607" y="-5780" width="80" height="20" as="geometry"/>
                </mxCell>
            </root>
        </mxGraphModel>
    </diagram>
</mxfile>